<svg width="86" height="86" viewBox="0 0 86 86" fill="none" xmlns="http://www.w3.org/2000/svg">
<path d="M39.417 3.58337H46.5837V39.4167H39.417V3.58337Z" fill="#CDA97E"/>
<path d="M65.4349 38.3273C64.8974 34.83 61.8874 32.25 58.3507 32.25H27.6487C24.1119 32.25 21.1019 34.83 20.5644 38.3273L14.333 78.8333H71.6663L65.4349 38.3273ZM22.6858 71.6667L27.6487 39.4167H58.3507L63.3136 71.6667H22.6858Z" fill="#CDA97E"/>
<path d="M21.5 46.5834H64.5V53.75H21.5V46.5834ZM34.8085 71.6667L35.8333 64.5L37.8794 71.6667H34.8085ZM48.1206 75.25L50.1667 60.9167L54.2624 75.25H48.1206Z" fill="#CDA97E"/>
<path opacity="0.3" d="M61.8236 50.1666H24.1771L17.917 75.25H68.0837L61.8236 50.1666Z" fill="#CDA97E"/>
</svg>
