<svg width="86" height="86" viewBox="0 0 86 86" fill="none" xmlns="http://www.w3.org/2000/svg">
<path opacity="0.3" d="M64.4107 10.75C61.3147 10.75 57.7314 12.7997 55.3019 14.4946C53.091 12.8068 49.7621 10.75 46.6732 10.75C42.6707 10.75 39.417 14.0037 39.417 18.0063L39.4385 18.3861C40.0118 23.7145 50.9482 33.8876 53.134 35.8727L55.5384 38.055L57.9464 35.8763C61.0173 33.0957 71.0865 23.6034 71.6455 18.3108L71.667 17.9346C71.667 13.9714 68.4097 10.75 64.4107 10.75Z" fill="#CDA97E"/>
<path d="M77.3502 44.4835C75.3722 42.5055 72.1615 42.5055 70.1835 44.4835L53.7503 60.9166H39.417C38.428 60.9166 37.6253 60.114 37.6253 59.125C37.6253 58.136 38.428 57.3333 39.417 57.3333H46.5837C50.5432 57.3333 53.7503 54.1262 53.7503 50.1666V46.5833H31.0212C27.2193 46.5833 23.5751 48.0919 20.8876 50.783L7.16699 64.5L21.5003 78.8333L28.667 71.6666H54.3667C56.2658 71.6666 58.0897 70.9105 59.4335 69.5668L77.3502 51.6501C79.3282 49.6721 79.3282 46.4615 77.3502 44.4835ZM64.4107 7.16663C58.7061 7.16663 55.542 11.2839 55.542 11.2839C55.542 11.2839 52.3779 7.16663 46.6732 7.16663C40.6855 7.16663 35.8337 12.0185 35.8337 18.0062C35.8337 26.875 55.542 42.6416 55.542 42.6416C55.542 42.6416 75.2503 26.875 75.2503 18.0062C75.2503 12.0185 70.3985 7.16663 64.4107 7.16663ZM55.5456 33.221C48.8842 27.176 43.2655 20.4823 43.0003 18.0062C43.0003 15.9816 44.6487 14.3333 46.6732 14.3333C50.1849 14.3333 55.1801 19.0848 55.1801 19.0848C55.1801 19.0848 60.8919 14.3333 64.4107 14.3333C66.4353 14.3333 68.0837 15.9816 68.0872 17.9381C67.8149 20.511 62.2751 27.1294 55.5456 33.221Z" fill="#CDA97E"/>
</svg>
