<svg width="33" height="33" viewBox="0 0 33 33" fill="none" xmlns="http://www.w3.org/2000/svg">
<path d="M20.4166 7.08334C21.6452 7.32305 22.8647 7.86488 23.7499 8.75001C24.6351 9.63515 25.1769 10.8548 25.4166 12.0834M21.2499 1.25C23.8024 1.53357 26.0994 2.76845 27.9166 4.58334C29.7337 6.39823 30.9631 8.69783 31.2499 11.25M31.2491 23.7112V28.2274C31.2561 29.9539 29.7037 31.3956 27.9607 31.2382C12.9167 31.2501 1.24999 19.475 1.26177 4.53199C1.10479 2.79825 2.53929 1.25177 4.26351 1.25015H8.78874C9.52078 1.24295 10.2305 1.50167 10.7855 1.97807C12.3635 3.33249 13.3786 7.92963 12.9881 9.75715C12.6831 11.184 11.2448 12.1822 10.267 13.158C12.4143 16.927 15.5411 20.0475 19.3174 22.1907C20.2952 21.2147 21.2956 19.7794 22.7251 19.475C24.5591 19.0847 29.1857 20.101 30.5347 21.69C31.0132 22.2535 31.2674 22.9729 31.2491 23.7112Z" stroke="white" stroke-width="2.5" stroke-linecap="round" stroke-linejoin="round"/>
</svg>
