<svg width="86" height="86" viewBox="0 0 86 86" fill="none" xmlns="http://www.w3.org/2000/svg">
<path d="M19.7087 78.8333C12.9003 78.8333 7.16699 73.1 7.16699 66.2917C7.16699 59.4833 12.9003 53.75 19.7087 53.75C26.517 53.75 32.2503 59.4833 32.2503 66.2917C32.2503 73.1 26.517 78.8333 19.7087 78.8333ZM19.7087 60.9167C16.842 60.9167 14.3337 63.425 14.3337 66.2917C14.3337 69.1583 16.842 71.6667 19.7087 71.6667C22.5753 71.6667 25.0837 69.1583 25.0837 66.2917C25.0837 63.425 22.5753 60.9167 19.7087 60.9167Z" fill="#CDA97E"/>
<path d="M31.175 69.875L26.1583 64.8583L46.225 44.7917L48.375 45.5083C50.1667 46.225 51.9583 46.5833 53.75 46.5833C61.275 46.5833 67.725 40.4917 68.0833 32.9667C64.1417 36.55 57.3333 36.55 53.3917 32.6083C51.2417 30.8167 50.1667 27.95 50.1667 25.0833C50.1667 22.575 51.2417 20.0667 53.0333 17.9167C45.5083 18.275 39.4167 24.725 39.4167 32.25C39.4167 34.0417 39.775 35.8333 40.4917 37.625L41.2083 39.775L21.1417 59.8417L16.125 54.825L32.9667 37.9833C32.6083 35.8333 32.25 34.0417 32.25 32.25C32.25 20.425 41.925 10.75 53.75 10.75C56.2583 10.75 59.125 11.1083 61.6333 12.1833L66.65 14.3333L58.4083 22.575C57.6917 23.2917 57.3333 24.0083 57.3333 25.0833C57.3333 26.1583 57.6917 26.875 58.4083 27.5917C59.8417 29.025 61.9917 29.025 63.425 27.5917L71.6667 19.35L73.8167 24.3667C74.8917 26.875 75.25 29.7417 75.25 32.25C75.25 44.075 65.575 53.75 53.75 53.75C51.9583 53.75 50.1667 53.3917 48.375 53.0333L31.175 69.875Z" fill="#CDA97E"/>
<path opacity="0.3" d="M28.6671 67.3667L47.3005 48.7334C49.4505 49.45 51.6005 50.1667 53.7505 50.1667C63.7838 50.1667 71.6671 42.2834 71.6671 32.25C71.6671 30.1 71.3088 27.5917 70.2338 25.8L65.9338 30.1C64.5005 31.5334 62.7088 32.25 60.9171 32.25C59.1255 32.25 57.3338 31.5334 55.9005 30.1C53.0338 27.2334 53.0338 22.9334 55.9005 20.0667L60.2005 15.7667C58.4088 14.6917 55.9005 14.3334 53.7505 14.3334C43.7171 14.3334 35.8338 22.2167 35.8338 32.25C35.8338 34.4 36.1921 36.9084 37.2671 38.7L18.6338 57.3334L28.6671 67.3667Z" fill="#CDA97E"/>
</svg>
