<svg width="86" height="86" viewBox="0 0 86 86" fill="none" xmlns="http://www.w3.org/2000/svg">
<path d="M39.4167 10.75H46.5833V21.5H39.4167V10.75ZM39.4167 64.5H46.5833V75.25H39.4167V64.5ZM10.75 39.4167H21.5V46.5833H10.75V39.4167ZM64.5 39.4167H75.25V46.5833H64.5V39.4167ZM43 51.6L26.1583 34.7583L31.175 29.7417L43 41.5667L69.1583 15.4083L74.175 20.425L43 51.6Z" fill="#CDA97E"/>
<path d="M70.2337 34.4C70.9503 37.2666 71.667 39.775 71.667 43C71.667 58.7666 58.767 71.6666 43.0003 71.6666C27.2337 71.6666 14.3337 58.7666 14.3337 43C14.3337 27.2333 27.2337 14.3333 43.0003 14.3333C48.017 14.3333 52.6753 15.7666 56.617 17.9166L61.992 12.5416C56.2587 9.31663 49.8087 7.16663 43.0003 7.16663C23.292 7.16663 7.16699 23.2916 7.16699 43C7.16699 62.7083 23.292 78.8333 43.0003 78.8333C62.7087 78.8333 78.8337 62.7083 78.8337 43C78.8337 37.9833 77.7587 33.325 75.967 29.025L70.2337 34.4Z" fill="#CDA97E"/>
<path opacity="0.3" d="M42.9997 14.3334C35.3968 14.3334 28.1053 17.3536 22.7293 22.7296C17.3532 28.1057 14.333 35.3972 14.333 43C14.333 50.6029 17.3532 57.8944 22.7293 63.2704C28.1053 68.6465 35.3968 71.6667 42.9997 71.6667C50.6025 71.6667 57.894 68.6465 63.2701 63.2704C68.6461 57.8944 71.6663 50.6029 71.6663 43C71.6663 35.3972 68.6461 28.1057 63.2701 22.7296C57.894 17.3536 50.6025 14.3334 42.9997 14.3334Z" fill="#CDA97E"/>
</svg>
