<svg width="30" height="30" viewBox="0 0 30 30" fill="none" xmlns="http://www.w3.org/2000/svg">
<path fill-rule="evenodd" clip-rule="evenodd" d="M25 1.25C27.0711 1.25 28.75 2.92894 28.75 5V25C28.75 27.0711 27.0711 28.75 25 28.75H5C2.92894 28.75 1.25 27.0711 1.25 25V5C1.25 2.92894 2.92894 1.25 5 1.25H25ZM25 3.75C25.6904 3.75 26.25 4.30965 26.25 5V25C26.25 25.6904 25.6904 26.25 25 26.25H18.75V17.4999H21.3453C21.8833 17.4999 22.3609 17.1556 22.5311 16.6451L23.0849 14.9839C23.2872 14.3767 22.8354 13.7499 22.1955 13.7499H18.75V11.2499C18.75 10.6249 19.375 9.9999 20 9.9999H22.5C23.1904 9.9999 23.75 9.44025 23.75 8.7499V7.89241C23.75 7.48864 23.4921 7.12662 23.1016 7.02359C21.4631 6.59119 20 6.59119 20 6.59119C16.875 6.59119 15 8.7499 15 10.6249V13.7499H12.5C11.8096 13.7499 11.25 14.3095 11.25 14.9999V16.2499C11.25 16.9402 11.8096 17.4999 12.5 17.4999H15V26.25H5C4.30965 26.25 3.75 25.6904 3.75 25V5C3.75 4.30965 4.30965 3.75 5 3.75H25Z" fill="white"/>
</svg>
