<svg width="216" height="224" viewBox="0 0 216 224" fill="none" xmlns="http://www.w3.org/2000/svg">
<g clip-path="url(#clip0_54_470)">
<g clip-path="url(#clip1_54_470)">
<mask id="mask0_54_470" style="mask-type:luminance" maskUnits="userSpaceOnUse" x="24" y="-1" width="174" height="158">
<path d="M198 -1H24V157H198V-1Z" fill="white"/>
</mask>
<g mask="url(#mask0_54_470)">
<path d="M24 133.5V44L74 8.5V0L198 41V50.5L74 9V133.5H24Z" fill="white"/>
<path d="M186.5 133.5H172.5V94L171 92.5V77H170V73.5L170.5 73C172.5 68.5 178.184 64.736 178.5 63C180.1 54.2 169.232 53.0658 163.599 53.5987C169.36 59.363 174.706 65.0052 162 66.5C148.54 63.9763 154.178 60.3487 160.5 53.5C150 52 144 58.5 145.5 63C146.488 65.9638 152.167 70.5 154 73V76L153 77V92.5L151.5 94V133.5H137V35L186 51L186.5 133.5Z" fill="white"/>
<path d="M163.5 133.5H161V94L159 93V84C159 84 160 81 162 81C164 81 165.5 84 165.5 84V93L163.5 94.2999V133.5Z" fill="white"/>
<path fill-rule="evenodd" clip-rule="evenodd" d="M104.5 133.5H129C131.153 133.116 131.976 132.262 133 130V35H120L121.5 37L119.5 38L121 39.5L119 41L121 42L118.5 44L120.5 45L118 46.5L120 48L117.5 49.5L119.5 50.5L117 52L119.5 53.5L117 54.5L118.5 56L116.5 57.5L118.5 59L116 60L118 61.5L116 62.5L117.5 64L115.5 65.5L117 66.5L115 68L117 69.5L114.5 71L116.5 72L113.5 73.5L116.5 74.5L113.5 76.5L115.5 77.5L113 79L115 80.5L113 81.5L114.5 83L112.5 84.5L114.5 85.5L112 87L113.5 88L111.5 89.5L113 91L111 92.5L113 93.5L110.5 95L112.5 96L110 97.5L112 98.5L109.5 100L111.5 101L109 103L111 104.5C108.247 105.543 106.786 106.439 104.5 109L100 127.5C100.452 130.959 101.307 132.367 104.5 133.5ZM115.5 105.5C115.5 105.5 114 105.5 114 107C114 108.5 115.5 108.5 115.5 108.5C115.5 108.5 117 108.5 117 107C117 105.5 115.5 105.5 115.5 105.5ZM126 107C126 105.5 127.5 105.5 127.5 105.5C127.5 105.5 129 105.5 129 107C129 108.5 127.5 108.5 127.5 108.5C127.5 108.5 126 108.5 126 107ZM128 39.5C128 39.5 126.5 39.5 126.5 41C126.5 42.5 128 42.5 128 42.5C128 42.5 129.5 42.5 129.5 41C129.5 39.5 128 39.5 128 39.5Z" fill="white"/>
<path fill-rule="evenodd" clip-rule="evenodd" d="M87.6181 35C85.1582 35.5129 84.0065 36.1441 83 39V133.5H94V132.5L95 131L94 129.5L95.5 128.5L94 127L96 126L94 124.5L96.5 123L94.5 122L97 120.5L95 119.5L97 117.5L95.5 117L98 115L96 114L97.5 113L96 111.5L98 110L96 108.5L98.5 107.5L96.5 106L98.5 104.5L97 103.5L99 102L97 101L99.5 99L98 98L100.5 96.5L98.5 95.5L101 94L98.5 92L101 91L99 90L101.5 88.5L99.5 87L102 85.5L100 84.5L102.5 83L100.5 81.5L102.5 80L100.5 79L103 77.5L100.5 76L103.5 74.5L101.5 73.5L104 72L102 70.5L104 69L102.5 68L105 66.5L103 64.5C106.166 63.9866 107.45 63.1895 109 61L114.5 41.5V40C114.534 37.2889 113.548 36.275 110.785 35H87.6181ZM87 127.5C87 126 88.5 126 88.5 126C88.5 126 90 126 90 127.5C90 129 88.5 129 88.5 129C88.5 129 87 129 87 127.5ZM105.5 58.5H87.5L87.6181 42H109.5L105.5 58.5ZM87.5 62.5C87.5 62.5 87.5 61 89 61C90.5 61 90.5 62.5 90.5 62.5C90.5 62.5 90.5 64 89 64C87.5 64 87.5 62.5 87.5 62.5ZM100 61C98.5 61 98.5 62.5 98.5 62.5C98.5 62.5 98.5 64 100 64C101.5 64 101.5 62.5 101.5 62.5C101.5 62.5 101.5 61 100 61Z" fill="white"/>
<path fill-rule="evenodd" clip-rule="evenodd" d="M186.5 136.5V156H24V136.5H186.5ZM30.5 143.5C30.5 143.5 27.5 143.5 27.5 146.5C27.5 149.5 30.5 149.5 30.5 149.5C30.5 149.5 33.5 149.5 33.5 146.5C33.5 143.5 30.5 143.5 30.5 143.5ZM38.5 139V148C38.5 148 38.5 149 39.5 149C40.5 149 40.5 148 40.5 148V139C40.5 139 40.5 138 39.5 138C38.5 138 38.5 139 38.5 139ZM43 152V139C43 139 43 138 44 138C45 138 45 139 45 139V152C45 152 45 153 44 153C43 153 43 152 43 152ZM47.5 139V148C47.5 148 47.5 149 48.5 149C49.5 149 49.5 148 49.5 148V139C49.5 139 49.5 138 48.5 138C47.5 138 47.5 139 47.5 139ZM52 152V139C52 139 52 138 53 138C54 138 54 139 54 139V152C54 152 54 153 53 153C52 153 52 152 52 152ZM56.5 139V148C56.5 148 56.5 149 57.5 149C58.5 149 58.5 148 58.5 148V139C58.5 139 58.5 138 57.5 138C56.5 138 56.5 139 56.5 139ZM60.5 152V139C60.5 139 60.5 138 61.5 138C62.5 138 62.5 139 62.5 139V152C62.5 152 62.5 153 61.5 153C60.5 153 60.5 152 60.5 152ZM64.5 139V148C64.5 148 64.5 149 65.5 149C66.5 149 66.5 148 66.5 148V139C66.5 139 66.5 138 65.5 138C64.5 138 64.5 139 64.5 139ZM69 152V139C69 139 69 138 70 138C71 138 71 139 71 139V152C71 152 71 153 70 153C69 153 69 152 69 152ZM73.5 139V148C73.5 148 73.5 149 74.5 149C75.5 149 75.5 148 75.5 148V139C75.5 139 75.5 138 74.5 138C73.5 138 73.5 139 73.5 139ZM78 152V139C78 139 78 138 79 138C80 138 80 139 80 139V152C80 152 80 153 79 153C78 153 78 152 78 152ZM82 139V148C82 148 82 149 83 149C84 149 84 148 84 148V139C84 139 84 138 83 138C82 138 82 139 82 139ZM86.5 152V139C86.5 139 86.5 138 87.5 138C88.5 138 88.5 139 88.5 139V152C88.5 152 88.5 153 87.5 153C86.5 153 86.5 152 86.5 152ZM91 139V148C91 148 91 149 92 149C93 149 93 148 93 148V139C93 139 93 138 92 138C91 138 91 139 91 139ZM95 152V139C95 139 95 138 96 138C97 138 97 139 97 139V152C97 152 97 153 96 153C95 153 95 152 95 152ZM99.5 139V148C99.5 148 99.5 149 100.5 149C101.5 149 101.5 148 101.5 148V139C101.5 139 101.5 138 100.5 138C99.5 138 99.5 139 99.5 139ZM103.5 152V139C103.5 139 103.5 138 104.5 138C105.5 138 105.5 139 105.5 139V152C105.5 152 105.5 153 104.5 153C103.5 153 103.5 152 103.5 152ZM108 139V148C108 148 108 149 109 149C110 149 110 148 110 148V139C110 139 110 138 109 138C108 138 108 139 108 139ZM112.5 152V139C112.5 139 112.5 138 113.5 138C114.5 138 114.5 139 114.5 139V152C114.5 152 114.5 153 113.5 153C112.5 153 112.5 152 112.5 152ZM116.5 139V148C116.5 148 116.5 149 117.5 149C118.5 149 118.5 148 118.5 148V139C118.5 139 118.5 138 117.5 138C116.5 138 116.5 139 116.5 139ZM121 152V139C121 139 121 138 122 138C123 138 123 139 123 139V152C123 152 123 153 122 153C121 153 121 152 121 152ZM125 139V148C125 148 125 149 126 149C127 149 127 148 127 148V139C127 139 127 138 126 138C125 138 125 139 125 139ZM129.5 152V139C129.5 139 129.5 138 130.5 138C131.5 138 131.5 139 131.5 139V152C131.5 152 131.5 153 130.5 153C129.5 153 129.5 152 129.5 152ZM134 139V148C134 148 134 149 135 149C136 149 136 148 136 148V139C136 139 136 138 135 138C134 138 134 139 134 139ZM138.5 152V139C138.5 139 138.5 138 139.5 138C140.5 138 140.5 139 140.5 139V152C140.5 152 140.5 153 139.5 153C138.5 153 138.5 152 138.5 152ZM143 139V148C143 148 143 149 144 149C145 149 145 148 145 148V139C145 139 145 138 144 138C143 138 143 139 143 139ZM147 152V139C147 139 147 138 148 138C149 138 149 139 149 139V152C149 152 149 153 148 153C147 153 147 152 147 152ZM151.5 139V148C151.5 148 151.5 149 152.5 149C153.5 149 153.5 148 153.5 148V139C153.5 139 153.5 138 152.5 138C151.5 138 151.5 139 151.5 139ZM155.5 152V139C155.5 139 155.5 138 156.5 138C157.5 138 157.5 139 157.5 139V152C157.5 152 157.5 153 156.5 153C155.5 153 155.5 152 155.5 152ZM160 139V148C160 148 160 149 161 149C162 149 162 148 162 148V139C162 139 162 138 161 138C160 138 160 139 160 139ZM164 152V139C164 139 164 138 165 138C166 138 166 139 166 139V152C166 152 166 153 165 153C164 153 164 152 164 152ZM168.5 139V148C168.5 148 168.5 149 169.5 149C170.5 149 170.5 148 170.5 148V139C170.5 139 170.5 138 169.5 138C168.5 138 168.5 139 168.5 139ZM173 152V139C173 139 173 138 174 138C175 138 175 139 175 139V152C175 152 175 153 174 153C173 153 173 152 173 152ZM177.5 139V148C177.5 148 177.5 149 178.5 149C179.5 149 179.5 148 179.5 148V139C179.5 139 179.5 138 178.5 138C177.5 138 177.5 139 177.5 139ZM182 152V139C182 139 182 138 183 138C184 138 184 139 184 139V152C184 152 184 153 183 153C182 153 182 152 182 152Z" fill="white"/>
<path d="M74 8.5L24 44V133.5H74V9M74 8.5V0L198 41V50.5L74 9M74 8.5V9M163.5 53.5C163.533 53.5329 163.566 53.5658 163.599 53.5987M163.599 53.5987C169.36 59.363 174.706 65.0052 162 66.5C148.54 63.9763 154.178 60.3487 160.5 53.5C150 52 144 58.5 145.5 63C146.488 65.9638 152.167 70.5 154 73V76L153 77V92.5L151.5 94V133.5H137V35L186 51L186.5 133.5H172.5V94L171 92.5V77H170V73.5L170.5 73C172.5 68.5 178.184 64.736 178.5 63C180.1 54.2 169.232 53.0658 163.599 53.5987ZM186.5 136.5V156H24V136.5H186.5ZM161 133.5H163.5V94.2999L165.5 93V84C165.5 84 164 81 162 81C160 81 159 84 159 84V93L161 94V133.5ZM104.5 133.5H129C131.153 133.116 131.976 132.262 133 130V35H120L121.5 37L119.5 38L121 39.5L119 41L121 42L118.5 44L120.5 45L118 46.5L120 48L117.5 49.5L119.5 50.5L117 52L119.5 53.5L117 54.5L118.5 56L116.5 57.5L118.5 59L116 60L118 61.5L116 62.5L117.5 64L115.5 65.5L117 66.5L115 68L117 69.5L114.5 71L116.5 72L113.5 73.5L116.5 74.5L113.5 76.5L115.5 77.5L113 79L115 80.5L113 81.5L114.5 83L112.5 84.5L114.5 85.5L112 87L113.5 88L111.5 89.5L113 91L111 92.5L113 93.5L110.5 95L112.5 96L110 97.5L112 98.5L109.5 100L111.5 101L109 103L111 104.5C108.247 105.543 106.786 106.439 104.5 109L100 127.5C100.452 130.959 101.307 132.367 104.5 133.5ZM105 126H128.5V111L109 110.5L105 126ZM114 107C114 105.5 115.5 105.5 115.5 105.5C115.5 105.5 117 105.5 117 107C117 108.5 115.5 108.5 115.5 108.5C115.5 108.5 114 108.5 114 107ZM126 107C126 105.5 127.5 105.5 127.5 105.5C127.5 105.5 129 105.5 129 107C129 108.5 127.5 108.5 127.5 108.5C127.5 108.5 126 108.5 126 107ZM98.5 62.5C98.5 62.5 98.5 61 100 61C101.5 61 101.5 62.5 101.5 62.5C101.5 62.5 101.5 64 100 64C98.5 64 98.5 62.5 98.5 62.5ZM87.5 62.5C87.5 62.5 87.5 61 89 61C90.5 61 90.5 62.5 90.5 62.5C90.5 62.5 90.5 64 89 64C87.5 64 87.5 62.5 87.5 62.5ZM87.5 58.5H105.5L109.5 42H87.6181L87.5 58.5ZM126.5 41C126.5 39.5 128 39.5 128 39.5C128 39.5 129.5 39.5 129.5 41C129.5 42.5 128 42.5 128 42.5C128 42.5 126.5 42.5 126.5 41ZM87 127.5C87 126 88.5 126 88.5 126C88.5 126 90 126 90 127.5C90 129 88.5 129 88.5 129C88.5 129 87 129 87 127.5ZM83 39C84.0065 36.1441 85.1582 35.5129 87.6181 35H110.785C113.548 36.275 114.534 37.2889 114.5 40V41.5L109 61C107.45 63.1895 106.166 63.9866 103 64.5L105 66.5L102.5 68L104 69L102 70.5L104 72L101.5 73.5L103.5 74.5L100.5 76L103 77.5L100.5 79L102.5 80L100.5 81.5L102.5 83L100 84.5L102 85.5L99.5 87L101.5 88.5L99 90L101 91L98.5 92L101 94L98.5 95.5L100.5 96.5L98 98L99.5 99L97 101L99 102L97 103.5L98.5 104.5L96.5 106L98.5 107.5L96 108.5L98 110L96 111.5L97.5 113L96 114L98 115L95.5 117L97 117.5L95 119.5L97 120.5L94.5 122L96.5 123L94 124.5L96 126L94 127L95.5 128.5L94 129.5L95 131L94 132.5V133.5H83V39ZM27.5 146.5C27.5 143.5 30.5 143.5 30.5 143.5C30.5 143.5 33.5 143.5 33.5 146.5C33.5 149.5 30.5 149.5 30.5 149.5C30.5 149.5 27.5 149.5 27.5 146.5ZM38.5 139V148C38.5 148 38.5 149 39.5 149C40.5 149 40.5 148 40.5 148V139C40.5 139 40.5 138 39.5 138C38.5 138 38.5 139 38.5 139ZM43 139V152C43 152 43 153 44 153C45 153 45 152 45 152V139C45 139 45 138 44 138C43 138 43 139 43 139ZM52 139V152C52 152 52 153 53 153C54 153 54 152 54 152V139C54 139 54 138 53 138C52 138 52 139 52 139ZM60.5 139V152C60.5 152 60.5 153 61.5 153C62.5 153 62.5 152 62.5 152V139C62.5 139 62.5 138 61.5 138C60.5 138 60.5 139 60.5 139ZM69 139V152C69 152 69 153 70 153C71 153 71 152 71 152V139C71 139 71 138 70 138C69 138 69 139 69 139ZM78 139V152C78 152 78 153 79 153C80 153 80 152 80 152V139C80 139 80 138 79 138C78 138 78 139 78 139ZM86.5 139V152C86.5 152 86.5 153 87.5 153C88.5 153 88.5 152 88.5 152V139C88.5 139 88.5 138 87.5 138C86.5 138 86.5 139 86.5 139ZM95 139V152C95 152 95 153 96 153C97 153 97 152 97 152V139C97 139 97 138 96 138C95 138 95 139 95 139ZM103.5 139V152C103.5 152 103.5 153 104.5 153C105.5 153 105.5 152 105.5 152V139C105.5 139 105.5 138 104.5 138C103.5 138 103.5 139 103.5 139ZM112.5 139V152C112.5 152 112.5 153 113.5 153C114.5 153 114.5 152 114.5 152V139C114.5 139 114.5 138 113.5 138C112.5 138 112.5 139 112.5 139ZM121 139V152C121 152 121 153 122 153C123 153 123 152 123 152V139C123 139 123 138 122 138C121 138 121 139 121 139ZM129.5 139V152C129.5 152 129.5 153 130.5 153C131.5 153 131.5 152 131.5 152V139C131.5 139 131.5 138 130.5 138C129.5 138 129.5 139 129.5 139ZM138.5 139V152C138.5 152 138.5 153 139.5 153C140.5 153 140.5 152 140.5 152V139C140.5 139 140.5 138 139.5 138C138.5 138 138.5 139 138.5 139ZM147 139V152C147 152 147 153 148 153C149 153 149 152 149 152V139C149 139 149 138 148 138C147 138 147 139 147 139ZM155.5 139V152C155.5 152 155.5 153 156.5 153C157.5 153 157.5 152 157.5 152V139C157.5 139 157.5 138 156.5 138C155.5 138 155.5 139 155.5 139ZM164 139V152C164 152 164 153 165 153C166 153 166 152 166 152V139C166 139 166 138 165 138C164 138 164 139 164 139ZM173 139V152C173 152 173 153 174 153C175 153 175 152 175 152V139C175 139 175 138 174 138C173 138 173 139 173 139ZM182 139V152C182 152 182 153 183 153C184 153 184 152 184 152V139C184 139 184 138 183 138C182 138 182 139 182 139ZM47.5 139V148C47.5 148 47.5 149 48.5 149C49.5 149 49.5 148 49.5 148V139C49.5 139 49.5 138 48.5 138C47.5 138 47.5 139 47.5 139ZM56.5 139V148C56.5 148 56.5 149 57.5 149C58.5 149 58.5 148 58.5 148V139C58.5 139 58.5 138 57.5 138C56.5 138 56.5 139 56.5 139ZM64.5 139V148C64.5 148 64.5 149 65.5 149C66.5 149 66.5 148 66.5 148V139C66.5 139 66.5 138 65.5 138C64.5 138 64.5 139 64.5 139ZM73.5 139V148C73.5 148 73.5 149 74.5 149C75.5 149 75.5 148 75.5 148V139C75.5 139 75.5 138 74.5 138C73.5 138 73.5 139 73.5 139ZM82 139V148C82 148 82 149 83 149C84 149 84 148 84 148V139C84 139 84 138 83 138C82 138 82 139 82 139ZM91 139V148C91 148 91 149 92 149C93 149 93 148 93 148V139C93 139 93 138 92 138C91 138 91 139 91 139ZM99.5 139V148C99.5 148 99.5 149 100.5 149C101.5 149 101.5 148 101.5 148V139C101.5 139 101.5 138 100.5 138C99.5 138 99.5 139 99.5 139ZM108 139V148C108 148 108 149 109 149C110 149 110 148 110 148V139C110 139 110 138 109 138C108 138 108 139 108 139ZM116.5 139V148C116.5 148 116.5 149 117.5 149C118.5 149 118.5 148 118.5 148V139C118.5 139 118.5 138 117.5 138C116.5 138 116.5 139 116.5 139ZM125 139V148C125 148 125 149 126 149C127 149 127 148 127 148V139C127 139 127 138 126 138C125 138 125 139 125 139ZM134 139V148C134 148 134 149 135 149C136 149 136 148 136 148V139C136 139 136 138 135 138C134 138 134 139 134 139ZM143 139V148C143 148 143 149 144 149C145 149 145 148 145 148V139C145 139 145 138 144 138C143 138 143 139 143 139ZM151.5 139V148C151.5 148 151.5 149 152.5 149C153.5 149 153.5 148 153.5 148V139C153.5 139 153.5 138 152.5 138C151.5 138 151.5 139 151.5 139ZM160 139V148C160 148 160 149 161 149C162 149 162 148 162 148V139C162 139 162 138 161 138C160 138 160 139 160 139ZM168.5 139V148C168.5 148 168.5 149 169.5 149C170.5 149 170.5 148 170.5 148V139C170.5 139 170.5 138 169.5 138C168.5 138 168.5 139 168.5 139ZM177.5 139V148C177.5 148 177.5 149 178.5 149C179.5 149 179.5 148 179.5 148V139C179.5 139 179.5 138 178.5 138C177.5 138 177.5 139 177.5 139Z" stroke="#3B1D1E" stroke-width="0.5"/>
<path d="M37.5 48C38.5 48 39 49 39 49V81.272C39 81.272 38.5 82 37.5 82C36.5 82 36 81.272 36 81.272V49C36 49 36.5 48 37.5 48Z" fill="#3B1D1E" stroke="#3B1D1E"/>
<path d="M37.5 129L35.5 126V95.5H31L30 95V93C31.6458 91.9544 32.239 91.0058 33 89V84C32.5058 81.4537 31.8462 80.2663 30 78.5V50C30 50 31.5 44.5 37.5 44.5C43.5 44.5 44.5 50 44.5 50V78.5C42.5908 80.3436 42.1244 81.5851 41.5 84V89C42.2833 91.0592 42.9597 91.9742 44.5 93V95L43.5 95.5H39.5V126L37.5 129Z" fill="#3B1D1E"/>
<path d="M35.5 126L37.5 129L39.5 126V95.5H43.5L44.5 95V93C42.9597 91.9742 42.2833 91.0592 41.5 89V84C42.1244 81.5851 42.5908 80.3436 44.5 78.5V50C44.5 50 43.5 44.5 37.5 44.5C31.5 44.5 30 50 30 50V78.5C31.8462 80.2663 32.5058 81.4537 33 84V89C32.239 91.0058 31.6458 91.9544 30 93V95L31 95.5H35.5M35.5 126C35.5 114.089 35.5 107.411 35.5 95.5M35.5 126V95.5" stroke="#3B1D1E"/>
<path d="M61.5 45L63 47V77.5H67.5L68.5 78V80C66.8542 81.0456 66.261 81.9942 65.5 84V89C65.9942 91.5463 66.6538 92.7337 68.5 94.5V123C68.5 123 67 128.5 61 128.5C55 128.5 54 123 54 123V94.5C55.9092 92.6564 56.3756 91.4149 57 89V84C56.2167 81.9408 55.5403 81.0258 54 80V78L55 77.5H59.5V47L61.5 45Z" fill="#3B1D1E" stroke="#3B1D1E"/>
<path d="M37.5 48C38.5 48 39 49 39 49V81.272C39 81.272 38.5 82 37.5 82C36.5 82 36 81.272 36 81.272V49C36 49 36.5 48 37.5 48Z" fill="white" stroke="white"/>
<path d="M61.5 91C62.5 91 63 92 63 92V124.272C63 124.272 62.5 125 61.5 125C60.5 125 60 124.272 60 124.272V92C60 92 60.5 91 61.5 91Z" fill="white" stroke="white"/>
</g>
</g>
<path d="M6.42578 219.927V221H2.10547V219.927H6.42578ZM2.33105 211.047V221H1.07324V211.047H2.33105ZM5.84473 215.326V216.399H2.10547V215.326H5.84473ZM6.35742 211.047V212.127H2.10547V211.047H6.35742ZM13.4734 219.927V221H9.34445V219.927H13.4734ZM9.57004 211.047V221H8.31223V211.047H9.57004ZM16.5629 211.047V221H15.3051V211.047H16.5629ZM22.0246 211.047V221H20.7804V211.047H22.0246ZM24.6427 211.047V212.127H18.1691V211.047H24.6427ZM31.745 219.927V221H27.4247V219.927H31.745ZM27.6503 211.047V221H26.3925V211.047H27.6503ZM31.1639 215.326V216.399H27.4247V215.326H31.1639ZM31.6766 211.047V212.127H27.4247V211.047H31.6766ZM41.4788 218.484C41.4788 218.252 41.4515 218.047 41.3968 217.869C41.3421 217.687 41.2464 217.523 41.1097 217.377C40.973 217.231 40.7816 217.092 40.5355 216.96C40.2894 216.828 39.9772 216.693 39.5989 216.557C39.1888 216.411 38.8174 216.249 38.4847 216.071C38.152 215.889 37.8672 215.682 37.6302 215.449C37.3978 215.217 37.2178 214.95 37.0902 214.649C36.9626 214.349 36.8988 214.005 36.8988 213.617C36.8988 213.23 36.9648 212.872 37.097 212.544C37.2337 212.216 37.4251 211.931 37.6712 211.689C37.9219 211.443 38.2226 211.252 38.5736 211.115C38.9245 210.979 39.3164 210.91 39.7493 210.91C40.3965 210.91 40.9411 211.054 41.3831 211.341C41.8297 211.623 42.167 211.995 42.3948 212.455C42.6227 212.911 42.7366 213.398 42.7366 213.918H41.4788C41.4788 213.544 41.4173 213.214 41.2943 212.927C41.1758 212.635 40.9889 212.407 40.7337 212.243C40.4831 212.075 40.1549 211.99 39.7493 211.99C39.3848 211.99 39.084 212.061 38.847 212.202C38.6146 212.343 38.4414 212.535 38.3275 212.776C38.2181 213.018 38.1634 213.294 38.1634 213.604C38.1634 213.813 38.1999 214.005 38.2728 214.178C38.3457 214.346 38.4573 214.504 38.6077 214.649C38.7627 214.795 38.9541 214.93 39.182 215.053C39.4144 215.176 39.6878 215.294 40.0023 215.408C40.4899 215.568 40.9069 215.745 41.2532 215.941C41.5996 216.137 41.8821 216.358 42.1009 216.604C42.3196 216.846 42.4792 217.122 42.5794 217.432C42.6842 217.737 42.7366 218.083 42.7366 218.471C42.7366 218.876 42.6683 219.243 42.5316 219.571C42.3994 219.899 42.2057 220.18 41.9505 220.412C41.6953 220.645 41.3877 220.825 41.0277 220.952C40.6676 221.075 40.262 221.137 39.8109 221.137C39.4189 221.137 39.0338 221.073 38.6556 220.945C38.2819 220.818 37.9424 220.626 37.637 220.371C37.3317 220.116 37.0879 219.801 36.9056 219.428C36.7233 219.049 36.6321 218.612 36.6321 218.115H37.89C37.89 218.457 37.9401 218.751 38.0404 218.997C38.1406 219.239 38.2796 219.439 38.4573 219.599C38.6351 219.758 38.8379 219.877 39.0657 219.954C39.2982 220.027 39.5465 220.063 39.8109 220.063C40.1754 220.063 40.4808 220 40.7269 219.872C40.9775 219.744 41.1644 219.562 41.2874 219.325C41.415 219.088 41.4788 218.808 41.4788 218.484ZM50.0166 219.927V221H45.6963V219.927H50.0166ZM45.9219 211.047V221H44.6641V211.047H45.9219ZM49.4356 215.326V216.399H45.6963V215.326H49.4356ZM49.9483 211.047V212.127H45.6963V211.047H49.9483ZM54.6375 219.489L57.03 211.047H58.3972L55.3074 221H54.3435L54.6375 219.489ZM52.491 211.047L54.863 219.489L55.1775 221H54.2136L51.1238 211.047H52.491ZM61.3432 211.047V221H60.0854V211.047H61.3432ZM68.7941 217.835H70.052C70.0201 218.519 69.8811 219.109 69.635 219.605C69.3934 220.098 69.0402 220.476 68.5754 220.74C68.1151 221.005 67.5386 221.137 66.8459 221.137C66.3492 221.137 65.9003 221.039 65.4992 220.843C65.0982 220.647 64.7541 220.367 64.467 220.002C64.1844 219.633 63.968 219.191 63.8176 218.676C63.6672 218.161 63.592 217.582 63.592 216.939V215.101C63.592 214.463 63.6672 213.886 63.8176 213.371C63.9725 212.856 64.1936 212.416 64.4807 212.052C64.7723 211.683 65.1255 211.4 65.5402 211.204C65.9595 211.008 66.4335 210.91 66.9621 210.91C67.6092 210.91 68.1561 211.04 68.6027 211.3C69.0539 211.555 69.4003 211.931 69.6418 212.428C69.8879 212.92 70.0246 213.524 70.052 214.239H68.7941C68.7622 213.715 68.6802 213.289 68.548 212.961C68.4159 212.628 68.2199 212.384 67.9602 212.229C67.7049 212.07 67.3723 211.99 66.9621 211.99C66.5975 211.99 66.2808 212.063 66.0119 212.209C65.7476 212.355 65.5288 212.564 65.3557 212.838C65.187 213.107 65.0594 213.433 64.9729 213.815C64.8908 214.194 64.8498 214.618 64.8498 215.087V216.939C64.8498 217.377 64.884 217.785 64.9523 218.163C65.0253 218.541 65.1392 218.874 65.2941 219.161C65.4536 219.444 65.661 219.665 65.9162 219.824C66.1714 219.984 66.4813 220.063 66.8459 220.063C67.3062 220.063 67.6708 219.988 67.9396 219.838C68.2085 219.688 68.4068 219.448 68.5344 219.12C68.6665 218.792 68.7531 218.364 68.7941 217.835ZM77.3866 219.927V221H73.0663V219.927H77.3866ZM73.2919 211.047V221H72.0341V211.047H73.2919ZM76.8056 215.326V216.399H73.0663V215.326H76.8056ZM77.3183 211.047V212.127H73.0663V211.047H77.3183ZM85.9925 211.929L83.2718 221H81.9867L85.1927 211.047H85.9994L85.9925 211.929ZM88.1937 221L85.473 211.929L85.4593 211.047H86.2728L89.4789 221H88.1937ZM88.1937 217.315V218.396H83.3949V217.315H88.1937ZM93.2589 219.489L95.6514 211.047H97.0186L93.9288 221H92.9649L93.2589 219.489ZM91.1124 211.047L93.4845 219.489L93.7989 221H92.835L89.7452 211.047H91.1124ZM101.359 211.929L98.6385 221H97.3533L100.559 211.047H101.366L101.359 211.929ZM103.56 221L100.84 211.929L100.826 211.047H101.639L104.846 221H103.56ZM103.56 217.315V218.396H98.7615V217.315H103.56ZM107.805 211.047V221H106.547V211.047H107.805ZM113.287 216.345H111.264L111.25 215.285H113.13C113.413 215.285 113.663 215.221 113.882 215.094C114.101 214.966 114.272 214.784 114.395 214.547C114.522 214.305 114.586 214.018 114.586 213.686C114.586 213.321 114.531 213.025 114.422 212.797C114.317 212.564 114.156 212.396 113.937 212.291C113.723 212.182 113.449 212.127 113.116 212.127H111.531V221H110.273V211.047H113.116C113.545 211.047 113.928 211.099 114.265 211.204C114.602 211.304 114.887 211.464 115.119 211.683C115.356 211.897 115.536 212.17 115.659 212.503C115.782 212.836 115.844 213.234 115.844 213.699C115.844 214.109 115.751 214.481 115.564 214.813C115.381 215.142 115.126 215.41 114.798 215.62C114.47 215.83 114.092 215.964 113.663 216.023L113.287 216.345ZM113.239 221H110.744L111.476 219.927H113.239C113.568 219.927 113.846 219.854 114.073 219.708C114.301 219.562 114.475 219.357 114.593 219.093C114.716 218.824 114.778 218.507 114.778 218.143C114.778 217.773 114.727 217.454 114.627 217.186C114.527 216.917 114.367 216.709 114.149 216.563C113.93 216.418 113.643 216.345 113.287 216.345H111.667L111.681 215.285H113.868L114.149 215.668C114.559 215.709 114.903 215.846 115.181 216.078C115.463 216.306 115.675 216.598 115.817 216.953C115.962 217.309 116.035 217.701 116.035 218.129C116.035 218.749 115.919 219.273 115.687 219.701C115.459 220.125 115.135 220.449 114.716 220.672C114.297 220.891 113.805 221 113.239 221ZM123.356 219.927V221H119.228V219.927H123.356ZM119.453 211.047V221H118.195V211.047H119.453ZM130.486 219.927V221H126.166V219.927H130.486ZM126.391 211.047V221H125.133V211.047H126.391ZM129.905 215.326V216.399H126.166V215.326H129.905ZM130.418 211.047V212.127H126.166V211.047H130.418ZM138.791 211.047V221H137.547V211.047H138.791ZM141.409 211.047V212.127H134.936V211.047H141.409ZM149.441 215.162V216.892C149.441 217.593 149.364 218.211 149.209 218.744C149.058 219.273 148.837 219.715 148.546 220.07C148.254 220.426 147.903 220.692 147.493 220.87C147.083 221.048 146.62 221.137 146.105 221.137C145.609 221.137 145.155 221.048 144.745 220.87C144.335 220.692 143.982 220.426 143.685 220.07C143.389 219.715 143.159 219.273 142.995 218.744C142.835 218.211 142.756 217.593 142.756 216.892V215.162C142.756 214.46 142.835 213.845 142.995 213.316C143.154 212.783 143.382 212.339 143.679 211.983C143.975 211.628 144.328 211.361 144.738 211.184C145.148 211.001 145.602 210.91 146.098 210.91C146.613 210.91 147.076 211.001 147.486 211.184C147.901 211.361 148.252 211.628 148.539 211.983C148.831 212.339 149.054 212.783 149.209 213.316C149.364 213.845 149.441 214.46 149.441 215.162ZM148.197 216.892V215.148C148.197 214.602 148.152 214.132 148.06 213.74C147.969 213.344 147.835 213.02 147.657 212.77C147.479 212.519 147.261 212.334 147.001 212.216C146.741 212.093 146.44 212.031 146.098 212.031C145.775 212.031 145.483 212.093 145.223 212.216C144.968 212.334 144.75 212.519 144.567 212.77C144.385 213.02 144.244 213.344 144.143 213.74C144.048 214.132 144 214.602 144 215.148V216.892C144 217.443 144.048 217.917 144.143 218.313C144.244 218.705 144.385 219.029 144.567 219.284C144.754 219.535 144.977 219.722 145.237 219.845C145.497 219.963 145.786 220.022 146.105 220.022C146.447 220.022 146.748 219.963 147.008 219.845C147.272 219.722 147.491 219.535 147.664 219.284C147.842 219.029 147.974 218.705 148.06 218.313C148.152 217.917 148.197 217.443 148.197 216.892ZM160.515 219.927V221H156.195V219.927H160.515ZM156.42 211.047V221H155.162V211.047H156.42ZM159.934 215.326V216.399H156.195V215.326H159.934ZM160.447 211.047V212.127H156.195V211.047H160.447ZM165.136 219.489L167.528 211.047H168.896L165.806 221H164.842L165.136 219.489ZM162.989 211.047L165.361 219.489L165.676 221H164.712L161.622 211.047H162.989ZM175.882 219.927V221H171.561V219.927H175.882ZM171.787 211.047V221H170.529V211.047H171.787ZM175.301 215.326V216.399H171.561V215.326H175.301ZM175.813 211.047V212.127H171.561V211.047H175.813ZM177.775 211.047H180.557C181.204 211.047 181.747 211.161 182.184 211.389C182.626 211.617 182.959 211.954 183.182 212.4C183.41 212.842 183.524 213.387 183.524 214.034C183.524 214.49 183.449 214.907 183.298 215.285C183.148 215.659 182.929 215.978 182.642 216.242C182.355 216.502 182.006 216.696 181.596 216.823L181.254 216.967H178.773L178.759 215.894H180.543C180.926 215.894 181.245 215.812 181.5 215.647C181.756 215.479 181.947 215.253 182.075 214.971C182.202 214.688 182.266 214.376 182.266 214.034C182.266 213.651 182.209 213.316 182.095 213.029C181.981 212.742 181.799 212.521 181.548 212.366C181.302 212.207 180.972 212.127 180.557 212.127H179.033V221H177.775V211.047ZM182.553 221L180.571 216.488L181.876 216.481L183.9 220.918V221H182.553ZM185.718 211.047L187.748 216.044L189.785 211.047H191.207L188.377 217.281V221H187.119V217.281L184.289 211.047H185.718ZM199.061 215.162V216.892C199.061 217.593 198.984 218.211 198.829 218.744C198.679 219.273 198.458 219.715 198.166 220.07C197.874 220.426 197.523 220.692 197.113 220.87C196.703 221.048 196.24 221.137 195.725 221.137C195.229 221.137 194.775 221.048 194.365 220.87C193.955 220.692 193.602 220.426 193.306 220.07C193.009 219.715 192.779 219.273 192.615 218.744C192.456 218.211 192.376 217.593 192.376 216.892V215.162C192.376 214.46 192.456 213.845 192.615 213.316C192.775 212.783 193.002 212.339 193.299 211.983C193.595 211.628 193.948 211.361 194.358 211.184C194.768 211.001 195.222 210.91 195.719 210.91C196.234 210.91 196.696 211.001 197.106 211.184C197.521 211.361 197.872 211.628 198.159 211.983C198.451 212.339 198.674 212.783 198.829 213.316C198.984 213.845 199.061 214.46 199.061 215.162ZM197.817 216.892V215.148C197.817 214.602 197.772 214.132 197.681 213.74C197.589 213.344 197.455 213.02 197.277 212.77C197.099 212.519 196.881 212.334 196.621 212.216C196.361 212.093 196.06 212.031 195.719 212.031C195.395 212.031 195.103 212.093 194.844 212.216C194.588 212.334 194.37 212.519 194.187 212.77C194.005 213.02 193.864 213.344 193.764 213.74C193.668 214.132 193.62 214.602 193.62 215.148V216.892C193.62 217.443 193.668 217.917 193.764 218.313C193.864 218.705 194.005 219.029 194.187 219.284C194.374 219.535 194.598 219.722 194.857 219.845C195.117 219.963 195.406 220.022 195.725 220.022C196.067 220.022 196.368 219.963 196.628 219.845C196.892 219.722 197.111 219.535 197.284 219.284C197.462 219.029 197.594 218.705 197.681 218.313C197.772 217.917 197.817 217.443 197.817 216.892ZM207.797 211.047V221H206.533L202.547 213.323V221H201.29V211.047H202.547L206.553 218.744V211.047H207.797ZM215.604 219.927V221H211.284V219.927H215.604ZM211.509 211.047V221H210.251V211.047H211.509ZM215.023 215.326V216.399H211.284V215.326H215.023ZM215.535 211.047V212.127H211.284V211.047H215.535Z" fill="white"/>
<path d="M6.348 170.432C9.43 170.432 11.914 171.72 11.914 174.802V203H7.084V190.212H5.566V203H0.782V174.802C0.782 171.72 3.22 170.432 6.348 170.432ZM5.566 185.382H7.084V175.998C7.084 175.538 6.762 175.216 6.348 175.216C5.888 175.216 5.566 175.538 5.566 175.998V185.382ZM22.834 198.17H26.468V203H18.05V170.8H22.834V198.17ZM41.0406 175.584H37.4066V184.508H41.0406V189.292H37.4066V198.17H41.0406V203H32.6226V170.8H41.0406V175.584ZM58.3273 170.8V184.324C58.3273 185.52 57.6373 186.624 57.0393 186.9C57.6373 187.176 58.3273 188.28 58.3273 189.476V203H53.4973V190.074C53.4973 189.614 53.1753 189.292 52.7613 189.292C52.3013 189.292 51.9793 189.614 51.9793 190.074V203H47.1953V189.476C47.1953 188.28 47.8393 187.176 48.4373 186.9C47.8393 186.624 47.1953 185.52 47.1953 184.324V170.8H51.9793V183.726C51.9793 184.14 52.3013 184.508 52.7613 184.508C53.1753 184.508 53.4973 184.14 53.4973 183.726V170.8H58.3273ZM82.3731 170.8H87.2031V203H82.3731V189.292H80.8551V203H76.0711V170.8H80.8551V184.508H82.3731V170.8ZM98.905 170.432C101.987 170.432 104.471 171.72 104.471 174.802V203H99.641V190.212H98.123V203H93.339V174.802C93.339 171.72 95.777 170.432 98.905 170.432ZM98.123 185.382H99.641V175.998C99.641 175.538 99.319 175.216 98.905 175.216C98.445 175.216 98.123 175.538 98.123 175.998V185.382ZM116.173 170.432C119.255 170.432 121.739 171.72 121.739 174.802V203H116.909V175.998C116.909 175.538 116.587 175.216 116.173 175.216C115.713 175.216 115.391 175.538 115.391 175.998V203H110.607V174.802C110.607 171.72 113.045 170.432 116.173 170.432ZM127.875 170.8H133.441C136.523 170.8 139.007 172.088 139.007 175.17V198.63C139.007 201.712 136.523 203 133.441 203H127.875V170.8ZM132.659 175.584V198.17H133.441C133.855 198.17 134.177 197.848 134.177 197.434V176.366C134.177 175.952 133.855 175.584 133.441 175.584H132.659ZM151.445 170.8H156.275V187.038C156.275 189.246 154.987 190.534 153.101 191.086V203H148.271V191.086C146.385 190.534 145.143 189.246 145.143 187.038V170.8H149.927V185.842C149.927 186.256 150.249 186.578 150.709 186.578C151.123 186.578 151.445 186.256 151.445 185.842V170.8ZM174.279 170.432C177.361 170.432 179.845 171.72 179.845 174.802V203H175.061V175.998C175.061 175.538 174.693 175.216 174.279 175.216C173.865 175.216 173.543 175.538 173.543 175.998V203H168.713V175.998C168.713 175.538 168.391 175.216 167.977 175.216C167.517 175.216 167.195 175.538 167.195 175.998V203H162.411V174.802C162.411 171.72 164.849 170.432 167.977 170.432C169.127 170.432 170.231 170.8 171.151 171.398C172.025 170.8 173.129 170.432 174.279 170.432ZM191.579 170.432C194.661 170.432 197.145 171.72 197.145 174.802V203H192.315V190.212H190.797V203H186.013V174.802C186.013 171.72 188.451 170.432 191.579 170.432ZM190.797 185.382H192.315V175.998C192.315 175.538 191.993 175.216 191.579 175.216C191.119 175.216 190.797 175.538 190.797 175.998V185.382ZM208.847 170.432C211.929 170.432 214.413 171.72 214.413 174.802V203H209.583V175.998C209.583 175.538 209.261 175.216 208.847 175.216C208.387 175.216 208.065 175.538 208.065 175.998V203H203.281V174.802C203.281 171.72 205.719 170.432 208.847 170.432Z" fill="white"/>
</g>
<defs>
<clipPath id="clip0_54_470">
<rect width="216" height="224" fill="white"/>
</clipPath>
<clipPath id="clip1_54_470">
<rect width="174" height="158" fill="white" transform="translate(24 -1)"/>
</clipPath>
</defs>
</svg>
