<svg width="317" height="92" viewBox="0 0 317 92" fill="none" xmlns="http://www.w3.org/2000/svg">
<g clip-path="url(#clip0_32_407)">
<path d="M107.049 82.1567V83H103.654V82.1567H107.049ZM103.832 75.1797V83H102.843V75.1797H103.832ZM106.592 78.542V79.3853H103.654V78.542H106.592ZM106.995 75.1797V76.0283H103.654V75.1797H106.995ZM114.016 82.1567V83H110.772V82.1567H114.016ZM110.949 75.1797V83H109.961V75.1797H110.949ZM117.874 75.1797V83H116.885V75.1797H117.874ZM123.595 75.1797V83H122.617V75.1797H123.595ZM125.652 75.1797V76.0283H120.566V75.1797H125.652ZM132.663 82.1567V83H129.268V82.1567H132.663ZM129.445 75.1797V83H128.457V75.1797H129.445ZM132.206 78.542V79.3853H129.268V78.542H132.206ZM132.609 75.1797V76.0283H129.268V75.1797H132.609ZM143.171 81.0234C143.171 80.8408 143.149 80.6797 143.106 80.54C143.063 80.3968 142.988 80.2679 142.88 80.1533C142.773 80.0387 142.623 79.9295 142.429 79.8257C142.236 79.7218 141.991 79.6162 141.693 79.5088C141.371 79.3942 141.079 79.2671 140.818 79.1274C140.557 78.9842 140.333 78.8213 140.147 78.6387C139.964 78.4561 139.823 78.2466 139.722 78.0103C139.622 77.7739 139.572 77.5036 139.572 77.1992C139.572 76.8949 139.624 76.6138 139.728 76.356C139.835 76.0981 139.985 75.8743 140.179 75.6846C140.376 75.4912 140.612 75.3408 140.888 75.2334C141.164 75.126 141.471 75.0723 141.812 75.0723C142.32 75.0723 142.748 75.1851 143.095 75.4106C143.446 75.6326 143.711 75.9245 143.89 76.2861C144.069 76.6442 144.159 77.0273 144.159 77.4355H143.171C143.171 77.1419 143.122 76.8823 143.025 76.6567C142.932 76.4276 142.786 76.2485 142.585 76.1196C142.388 75.9871 142.13 75.9209 141.812 75.9209C141.525 75.9209 141.289 75.9764 141.103 76.0874C140.92 76.1984 140.784 76.3488 140.694 76.5386C140.608 76.7284 140.566 76.945 140.566 77.1885C140.566 77.3532 140.594 77.5036 140.651 77.6396C140.709 77.7721 140.796 77.8957 140.915 78.0103C141.036 78.1248 141.187 78.2305 141.366 78.3271C141.548 78.4238 141.763 78.5169 142.01 78.6064C142.393 78.7318 142.721 78.8714 142.993 79.0254C143.265 79.1794 143.487 79.353 143.659 79.5464C143.831 79.7362 143.956 79.9528 144.035 80.1963C144.118 80.4362 144.159 80.7083 144.159 81.0127C144.159 81.3314 144.105 81.6196 143.998 81.8774C143.894 82.1353 143.742 82.3555 143.541 82.5381C143.341 82.7207 143.099 82.8621 142.816 82.9624C142.533 83.0591 142.214 83.1074 141.86 83.1074C141.552 83.1074 141.249 83.0573 140.952 82.957C140.659 82.8568 140.392 82.7064 140.152 82.5059C139.912 82.3053 139.72 82.0583 139.577 81.7646C139.434 81.4674 139.362 81.1237 139.362 80.7334H140.351C140.351 81.002 140.39 81.2329 140.469 81.4263C140.548 81.616 140.657 81.7736 140.796 81.8989C140.936 82.0243 141.095 82.1174 141.275 82.1782C141.457 82.2355 141.652 82.2642 141.86 82.2642C142.146 82.2642 142.386 82.214 142.58 82.1138C142.777 82.0135 142.923 81.8703 143.02 81.6841C143.12 81.4979 143.171 81.2777 143.171 81.0234ZM151.309 82.1567V83H147.914V82.1567H151.309ZM148.092 75.1797V83H147.103V75.1797H148.092ZM150.852 78.542V79.3853H147.914V78.542H150.852ZM151.255 75.1797V76.0283H147.914V75.1797H151.255ZM156.369 81.813L158.249 75.1797H159.324L156.896 83H156.138L156.369 81.813ZM154.683 75.1797L156.547 81.813L156.794 83H156.036L153.609 75.1797H154.683ZM163.068 75.1797V83H162.08V75.1797H163.068ZM170.353 80.5132H171.341C171.316 81.0503 171.207 81.514 171.013 81.9043C170.823 82.291 170.546 82.5882 170.181 82.7959C169.819 83.0036 169.366 83.1074 168.822 83.1074C168.431 83.1074 168.079 83.0304 167.764 82.8765C167.449 82.7225 167.178 82.5023 166.953 82.2158C166.731 81.9258 166.561 81.5785 166.442 81.1738C166.324 80.7692 166.265 80.3145 166.265 79.8096V78.3647C166.265 77.8634 166.324 77.4105 166.442 77.0059C166.564 76.6012 166.738 76.2557 166.963 75.9692C167.193 75.6792 167.47 75.4572 167.796 75.3032C168.125 75.1493 168.498 75.0723 168.913 75.0723C169.422 75.0723 169.851 75.1743 170.202 75.3784C170.557 75.5789 170.829 75.8743 171.019 76.2646C171.212 76.6514 171.319 77.1258 171.341 77.688H170.353C170.327 77.2762 170.263 76.9414 170.159 76.6836C170.055 76.4222 169.901 76.2306 169.697 76.1089C169.497 75.9836 169.235 75.9209 168.913 75.9209C168.627 75.9209 168.378 75.9782 168.167 76.0928C167.959 76.2074 167.787 76.3721 167.651 76.5869C167.518 76.7982 167.418 77.0542 167.35 77.355C167.286 77.6522 167.253 77.9852 167.253 78.354V79.8096C167.253 80.1533 167.28 80.4738 167.334 80.771C167.391 81.0682 167.481 81.3296 167.603 81.5552C167.728 81.7772 167.891 81.9508 168.091 82.0762C168.292 82.2015 168.535 82.2642 168.822 82.2642C169.183 82.2642 169.47 82.2051 169.681 82.0869C169.892 81.9688 170.048 81.7808 170.148 81.5229C170.252 81.2651 170.32 80.9285 170.353 80.5132ZM178.534 82.1567V83H175.139V82.1567H178.534ZM175.317 75.1797V83H174.328V75.1797H175.317ZM178.077 78.542V79.3853H175.139V78.542H178.077ZM178.48 75.1797V76.0283H175.139V75.1797H178.48ZM188.156 75.8726L186.018 83H185.008L187.527 75.1797H188.161L188.156 75.8726ZM189.885 83L187.747 75.8726L187.737 75.1797H188.376L190.895 83H189.885ZM189.885 80.105V80.9536H186.115V80.105H189.885ZM195.295 81.813L197.175 75.1797H198.249L195.821 83H195.064L195.295 81.813ZM193.608 75.1797L195.472 81.813L195.719 83H194.962L192.534 75.1797H193.608ZM203.089 75.8726L200.952 83H199.942L202.461 75.1797H203.095L203.089 75.8726ZM204.819 83L202.681 75.8726L202.67 75.1797H203.31L205.829 83H204.819ZM204.819 80.105V80.9536H201.048V80.105H204.819ZM209.584 75.1797V83H208.596V75.1797H209.584ZM215.321 79.3423H213.732L213.721 78.5098H215.198C215.42 78.5098 215.617 78.4596 215.789 78.3594C215.961 78.2591 216.095 78.1159 216.192 77.9297C216.292 77.7399 216.342 77.5143 216.342 77.2529C216.342 76.9665 216.299 76.7337 216.213 76.5547C216.131 76.3721 216.004 76.2396 215.832 76.1572C215.663 76.0713 215.449 76.0283 215.187 76.0283H213.941V83H212.953V75.1797H215.187C215.524 75.1797 215.825 75.2209 216.09 75.3032C216.355 75.382 216.578 75.5073 216.761 75.6792C216.947 75.8475 217.089 76.0623 217.185 76.3237C217.282 76.5851 217.33 76.8984 217.33 77.2637C217.33 77.5859 217.257 77.8778 217.11 78.1392C216.967 78.397 216.766 78.6082 216.508 78.7729C216.251 78.9377 215.953 79.0433 215.617 79.0898L215.321 79.3423ZM215.284 83H213.323L213.898 82.1567H215.284C215.542 82.1567 215.76 82.0994 215.939 81.9849C216.118 81.8703 216.254 81.7091 216.347 81.5015C216.444 81.2902 216.492 81.0413 216.492 80.7549C216.492 80.4648 216.453 80.2142 216.374 80.0029C216.295 79.7917 216.17 79.6287 215.998 79.5142C215.826 79.3996 215.601 79.3423 215.321 79.3423H214.049L214.059 78.5098H215.778L215.998 78.8105C216.321 78.8428 216.591 78.9502 216.809 79.1328C217.031 79.3118 217.198 79.541 217.309 79.8203C217.423 80.0996 217.481 80.4076 217.481 80.7441C217.481 81.2311 217.389 81.6429 217.207 81.9795C217.028 82.3125 216.773 82.5667 216.444 82.7422C216.115 82.9141 215.728 83 215.284 83ZM224.663 82.1567V83H221.419V82.1567H224.663ZM221.596 75.1797V83H220.608V75.1797H221.596ZM231.695 82.1567V83H228.3V82.1567H231.695ZM228.477 75.1797V83H227.489V75.1797H228.477ZM231.238 78.542V79.3853H228.3V78.542H231.238ZM231.641 75.1797V76.0283H228.3V75.1797H231.641ZM241.08 75.1797V83H240.103V75.1797H241.08ZM243.137 75.1797V76.0283H238.051V75.1797H243.137ZM250.878 78.4131V79.772C250.878 80.3234 250.817 80.8086 250.696 81.2275C250.577 81.6429 250.404 81.9902 250.175 82.2695C249.945 82.5488 249.67 82.7583 249.347 82.8979C249.025 83.0376 248.662 83.1074 248.257 83.1074C247.867 83.1074 247.51 83.0376 247.188 82.8979C246.866 82.7583 246.588 82.5488 246.356 82.2695C246.123 81.9902 245.942 81.6429 245.813 81.2275C245.688 80.8086 245.625 80.3234 245.625 79.772V78.4131C245.625 77.8617 245.688 77.3783 245.813 76.9629C245.939 76.5439 246.118 76.1948 246.35 75.9155C246.583 75.6362 246.861 75.4268 247.183 75.2871C247.505 75.1439 247.861 75.0723 248.252 75.0723C248.656 75.0723 249.02 75.1439 249.342 75.2871C249.668 75.4268 249.944 75.6362 250.169 75.9155C250.398 76.1948 250.574 76.5439 250.696 76.9629C250.817 77.3783 250.878 77.8617 250.878 78.4131ZM249.901 79.772V78.4023C249.901 77.9727 249.865 77.6038 249.793 77.2959C249.722 76.9844 249.616 76.7301 249.476 76.5332C249.337 76.3363 249.165 76.1912 248.961 76.0981C248.757 76.0015 248.52 75.9531 248.252 75.9531C247.997 75.9531 247.768 76.0015 247.564 76.0981C247.364 76.1912 247.192 76.3363 247.049 76.5332C246.905 76.7301 246.794 76.9844 246.716 77.2959C246.64 77.6038 246.603 77.9727 246.603 78.4023V79.772C246.603 80.2052 246.64 80.5776 246.716 80.8892C246.794 81.1971 246.905 81.4513 247.049 81.6519C247.195 81.8488 247.371 81.9956 247.575 82.0923C247.779 82.1854 248.006 82.2319 248.257 82.2319C248.526 82.2319 248.762 82.1854 248.966 82.0923C249.174 81.9956 249.346 81.8488 249.482 81.6519C249.621 81.4513 249.725 81.1971 249.793 80.8892C249.865 80.5776 249.901 80.2052 249.901 79.772ZM262.439 82.1567V83H259.044V82.1567H262.439ZM259.222 75.1797V83H258.233V75.1797H259.222ZM261.982 78.542V79.3853H259.044V78.542H261.982ZM262.385 75.1797V76.0283H259.044V75.1797H262.385ZM267.5 81.813L269.379 75.1797H270.454L268.026 83H267.269L267.5 81.813ZM265.813 75.1797L267.677 81.813L267.924 83H267.167L264.739 75.1797H265.813ZM277.373 82.1567V83H273.978V82.1567H277.373ZM274.155 75.1797V83H273.167V75.1797H274.155ZM276.916 78.542V79.3853H273.978V78.542H276.916ZM277.319 75.1797V76.0283H273.978V75.1797H277.319ZM280.29 75.1797H282.476C282.985 75.1797 283.411 75.2692 283.755 75.4482C284.102 75.6273 284.363 75.8923 284.539 76.2432C284.718 76.5905 284.807 77.0184 284.807 77.5269C284.807 77.8849 284.748 78.2126 284.63 78.5098C284.512 78.8034 284.34 79.054 284.114 79.2617C283.889 79.4658 283.615 79.618 283.293 79.7183L283.024 79.8311H281.074L281.064 78.9878H282.466C282.766 78.9878 283.017 78.9233 283.217 78.7944C283.418 78.6619 283.568 78.4847 283.669 78.2627C283.769 78.0407 283.819 77.7954 283.819 77.5269C283.819 77.2261 283.774 76.9629 283.685 76.7373C283.595 76.5117 283.452 76.3381 283.255 76.2163C283.062 76.091 282.802 76.0283 282.476 76.0283H281.279V83H280.29V75.1797ZM284.045 83L282.487 79.4551L283.513 79.4497L285.103 82.9355V83H284.045ZM287.961 75.1797L289.556 79.106L291.157 75.1797H292.274L290.051 80.0781V83H289.062V80.0781L286.839 75.1797H287.961ZM299.875 78.4131V79.772C299.875 80.3234 299.815 80.8086 299.693 81.2275C299.575 81.6429 299.401 81.9902 299.172 82.2695C298.943 82.5488 298.667 82.7583 298.345 82.8979C298.022 83.0376 297.659 83.1074 297.254 83.1074C296.864 83.1074 296.508 83.0376 296.185 82.8979C295.863 82.7583 295.586 82.5488 295.353 82.2695C295.12 81.9902 294.939 81.6429 294.81 81.2275C294.685 80.8086 294.622 80.3234 294.622 79.772V78.4131C294.622 77.8617 294.685 77.3783 294.81 76.9629C294.936 76.5439 295.115 76.1948 295.348 75.9155C295.58 75.6362 295.858 75.4268 296.18 75.2871C296.502 75.1439 296.859 75.0723 297.249 75.0723C297.654 75.0723 298.017 75.1439 298.339 75.2871C298.665 75.4268 298.941 75.6362 299.166 75.9155C299.396 76.1948 299.571 76.5439 299.693 76.9629C299.815 77.3783 299.875 77.8617 299.875 78.4131ZM298.898 79.772V78.4023C298.898 77.9727 298.862 77.6038 298.79 77.2959C298.719 76.9844 298.613 76.7301 298.474 76.5332C298.334 76.3363 298.162 76.1912 297.958 76.0981C297.754 76.0015 297.517 75.9531 297.249 75.9531C296.995 75.9531 296.766 76.0015 296.561 76.0981C296.361 76.1912 296.189 76.3363 296.046 76.5332C295.903 76.7301 295.792 76.9844 295.713 77.2959C295.638 77.6038 295.6 77.9727 295.6 78.4023V79.772C295.6 80.2052 295.638 80.5776 295.713 80.8892C295.792 81.1971 295.903 81.4513 296.046 81.6519C296.193 81.8488 296.368 81.9956 296.572 82.0923C296.776 82.1854 297.004 82.2319 297.254 82.2319C297.523 82.2319 297.759 82.1854 297.963 82.0923C298.171 81.9956 298.343 81.8488 298.479 81.6519C298.619 81.4513 298.722 81.1971 298.79 80.8892C298.862 80.5776 298.898 80.2052 298.898 79.772ZM308.169 75.1797V83H307.176L304.044 76.9683V83H303.056V75.1797H304.044L307.192 81.2275V75.1797H308.169ZM315.733 82.1567V83H312.338V82.1567H315.733ZM312.516 75.1797V83H311.527V75.1797H312.516ZM315.276 78.542V79.3853H312.338V78.542H315.276ZM315.679 75.1797V76.0283H312.338V75.1797H315.679Z" fill="#3B1D1E"/>
<path d="M108.348 31.432C111.43 31.432 113.914 32.72 113.914 35.802V64H109.084V51.212H107.566V64H102.782V35.802C102.782 32.72 105.22 31.432 108.348 31.432ZM107.566 46.382H109.084V36.998C109.084 36.538 108.762 36.216 108.348 36.216C107.888 36.216 107.566 36.538 107.566 36.998V46.382ZM124.834 59.17H128.468V64H120.05V31.8H124.834V59.17ZM143.041 36.584H139.407V45.508H143.041V50.292H139.407V59.17H143.041V64H134.623V31.8H143.041V36.584ZM160.327 31.8V45.324C160.327 46.52 159.637 47.624 159.039 47.9C159.637 48.176 160.327 49.28 160.327 50.476V64H155.497V51.074C155.497 50.614 155.175 50.292 154.761 50.292C154.301 50.292 153.979 50.614 153.979 51.074V64H149.195V50.476C149.195 49.28 149.839 48.176 150.437 47.9C149.839 47.624 149.195 46.52 149.195 45.324V31.8H153.979V44.726C153.979 45.14 154.301 45.508 154.761 45.508C155.175 45.508 155.497 45.14 155.497 44.726V31.8H160.327ZM184.373 31.8H189.203V64H184.373V50.292H182.855V64H178.071V31.8H182.855V45.508H184.373V31.8ZM200.905 31.432C203.987 31.432 206.471 32.72 206.471 35.802V64H201.641V51.212H200.123V64H195.339V35.802C195.339 32.72 197.777 31.432 200.905 31.432ZM200.123 46.382H201.641V36.998C201.641 36.538 201.319 36.216 200.905 36.216C200.445 36.216 200.123 36.538 200.123 36.998V46.382ZM218.173 31.432C221.255 31.432 223.739 32.72 223.739 35.802V64H218.909V36.998C218.909 36.538 218.587 36.216 218.173 36.216C217.713 36.216 217.391 36.538 217.391 36.998V64H212.607V35.802C212.607 32.72 215.045 31.432 218.173 31.432ZM229.875 31.8H235.441C238.523 31.8 241.007 33.088 241.007 36.17V59.63C241.007 62.712 238.523 64 235.441 64H229.875V31.8ZM234.659 36.584V59.17H235.441C235.855 59.17 236.177 58.848 236.177 58.434V37.366C236.177 36.952 235.855 36.584 235.441 36.584H234.659ZM253.445 31.8H258.275V48.038C258.275 50.246 256.987 51.534 255.101 52.086V64H250.271V52.086C248.385 51.534 247.143 50.246 247.143 48.038V31.8H251.927V46.842C251.927 47.256 252.249 47.578 252.709 47.578C253.123 47.578 253.445 47.256 253.445 46.842V31.8ZM276.279 31.432C279.361 31.432 281.845 32.72 281.845 35.802V64H277.061V36.998C277.061 36.538 276.693 36.216 276.279 36.216C275.865 36.216 275.543 36.538 275.543 36.998V64H270.713V36.998C270.713 36.538 270.391 36.216 269.977 36.216C269.517 36.216 269.195 36.538 269.195 36.998V64H264.411V35.802C264.411 32.72 266.849 31.432 269.977 31.432C271.127 31.432 272.231 31.8 273.151 32.398C274.025 31.8 275.129 31.432 276.279 31.432ZM293.579 31.432C296.661 31.432 299.145 32.72 299.145 35.802V64H294.315V51.212H292.797V64H288.013V35.802C288.013 32.72 290.451 31.432 293.579 31.432ZM292.797 46.382H294.315V36.998C294.315 36.538 293.993 36.216 293.579 36.216C293.119 36.216 292.797 36.538 292.797 36.998V46.382ZM310.847 31.432C313.929 31.432 316.413 32.72 316.413 35.802V64H311.583V36.998C311.583 36.538 311.261 36.216 310.847 36.216C310.387 36.216 310.065 36.538 310.065 36.998V64H305.281V35.802C305.281 32.72 307.719 31.432 310.847 31.432Z" fill="#3B1D1E"/>
<g clip-path="url(#clip1_32_407)">
<mask id="mask0_32_407" style="mask-type:luminance" maskUnits="userSpaceOnUse" x="0" y="0" width="101" height="92">
<path d="M101 0H0V92H101V0Z" fill="white"/>
</mask>
<g mask="url(#mask0_32_407)">
<path d="M0 78.3165V26.2025L29.023 5.53164V0.582275L101 24.4557V29.9873L29.023 5.82278V78.3165H0Z" fill="#3B1D1E"/>
<path d="M94.3246 78.3163H86.1981V55.3163L85.3274 54.4429V45.4176H84.747V43.3796L85.0372 43.0885C86.1981 40.4682 89.4975 38.2765 89.6809 37.2657C90.6096 32.1417 84.3012 31.4812 81.0314 31.7915C84.3755 35.148 87.4786 38.4333 80.1033 39.3037C72.2903 37.8342 75.5629 35.7219 79.2326 31.7341C73.1378 30.8606 69.655 34.6455 70.5257 37.2657C71.0992 38.9915 74.3956 41.6328 75.4596 43.0885V44.8353L74.8792 45.4176V54.4429L74.0085 55.3163V78.3163H65.5918V20.9619L94.0343 30.2784L94.3246 78.3163Z" fill="#3B1D1E"/>
<path d="M80.9734 78.3164H79.5222V55.3164L78.3613 54.7342V49.4937C78.3613 49.4937 78.9418 47.7468 80.1027 47.7468C81.2636 47.7468 82.1343 49.4937 82.1343 49.4937V54.7342L80.9734 55.4911V78.3164Z" fill="#3B1D1E"/>
<path fill-rule="evenodd" clip-rule="evenodd" d="M46.7273 78.3163H60.9486C62.1983 78.0928 62.676 77.5955 63.2704 76.2784V20.9619H55.7244L56.5951 22.1265L55.4342 22.7087L56.3049 23.5822L55.144 24.4556L56.3049 25.0379L54.8537 26.2024L56.0147 26.7847L54.5635 27.6581L55.7244 28.5315L54.2733 29.405L55.4342 29.9872L53.9831 30.8606L55.4342 31.7341L53.9831 32.3163L54.8537 33.1898L53.6928 34.0632L54.8537 34.9366L53.4026 35.5189L54.5635 36.3923L53.4026 36.9746L54.2733 37.848L53.1124 38.7214L53.9831 39.3037L52.8221 40.1771L53.9831 41.0505L52.5319 41.9239L53.6928 42.5062L51.9514 43.3796L53.6928 43.9619L51.9514 45.1265L53.1124 45.7087L51.6612 46.5822L52.8221 47.4556L51.6612 48.0379L52.5319 48.9113L51.371 49.7847L52.5319 50.367L51.0808 51.2404L51.9514 51.8227L50.7905 52.6961L51.6612 53.5695L50.5003 54.4429L51.6612 55.0252L50.2101 55.8986L51.371 56.4809L49.9198 57.3543L51.0808 57.9366L49.6296 58.81L50.7905 59.3923L49.3394 60.5569L50.5003 61.4303C48.9021 62.0376 48.0544 62.5593 46.7273 64.0505L44.1152 74.8227C44.3774 76.8368 44.8737 77.6566 46.7273 78.3163ZM53.1124 62.0125C53.1124 62.0125 52.2417 62.0125 52.2417 62.886C52.2417 63.7594 53.1124 63.7594 53.1124 63.7594C53.1124 63.7594 53.9831 63.7594 53.9831 62.886C53.9831 62.0125 53.1124 62.0125 53.1124 62.0125ZM59.2072 62.886C59.2072 62.0125 60.0779 62.0125 60.0779 62.0125C60.0779 62.0125 60.9486 62.0125 60.9486 62.886C60.9486 63.7594 60.0779 63.7594 60.0779 63.7594C60.0779 63.7594 59.2072 63.7594 59.2072 62.886ZM60.3681 23.5822C60.3681 23.5822 59.4974 23.5822 59.4974 24.4556C59.4974 25.329 60.3681 25.329 60.3681 25.329C60.3681 25.329 61.2388 25.329 61.2388 24.4556C61.2388 23.5822 60.3681 23.5822 60.3681 23.5822Z" fill="#3B1D1E"/>
<path fill-rule="evenodd" clip-rule="evenodd" d="M36.9287 20.9619C35.5008 21.2606 34.8323 21.6281 34.248 23.291V78.3163H40.6331V77.7341L41.2136 76.8606L40.6331 75.9872L41.5038 75.405L40.6331 74.5315L41.794 73.9493L40.6331 73.0758L42.0843 72.2024L40.9233 71.6201L42.3745 70.7467L41.2136 70.1644L42.3745 68.9999L41.5038 68.7088L42.9549 67.5442L41.794 66.9619L42.6647 66.3796L41.794 65.5062L42.9549 64.6328L41.794 63.7594L43.2452 63.1771L42.0843 62.3037L43.2452 61.4303L42.3745 60.848L43.5354 59.9746L42.3745 59.3923L43.8256 58.2277L42.9549 57.6455L44.4061 56.772L43.2452 56.1898L44.6963 55.3163L43.2452 54.1518L44.6963 53.5695L43.5354 52.9872L44.9866 52.1138L43.8256 51.2404L45.2768 50.367L44.1159 49.7847L45.567 48.9113L44.4061 48.0379L45.567 47.1644L44.4061 46.5822L45.8572 45.7087L44.4061 44.8353L46.1475 43.9619L44.9866 43.3796L46.4377 42.5062L45.2768 41.6328L46.4377 40.7594L45.567 40.1771L47.0182 39.3037L45.8572 38.1391C47.6947 37.8402 48.4401 37.3761 49.34 36.1012L52.5325 24.7467V23.8733C52.5523 22.2947 51.98 21.7043 50.3759 20.9619H36.9287ZM36.5699 74.8227C36.5699 73.9493 37.4406 73.9493 37.4406 73.9493C37.4406 73.9493 38.3113 73.9493 38.3113 74.8227C38.3113 75.6961 37.4406 75.6961 37.4406 75.6961C37.4406 75.6961 36.5699 75.6961 36.5699 74.8227ZM47.3084 34.6455H36.8601L36.9287 25.0379H49.6302L47.3084 34.6455ZM36.8601 36.9746C36.8601 36.9746 36.8601 36.1012 37.7308 36.1012C38.6015 36.1012 38.6015 36.9746 38.6015 36.9746C38.6015 36.9746 38.6015 37.848 37.7308 37.848C36.8601 37.848 36.8601 36.9746 36.8601 36.9746ZM44.1159 36.1012C43.2452 36.1012 43.2452 36.9746 43.2452 36.9746C43.2452 36.9746 43.2452 37.848 44.1159 37.848C44.9866 37.848 44.9866 36.9746 44.9866 36.9746C44.9866 36.9746 44.9866 36.1012 44.1159 36.1012Z" fill="#3B1D1E"/>
<path fill-rule="evenodd" clip-rule="evenodd" d="M94.3247 80.0632V91.4177H0V80.0632H94.3247ZM3.77299 84.1392C3.77299 84.1392 2.03161 84.1392 2.03161 85.886C2.03161 87.6329 3.77299 87.6329 3.77299 87.6329C3.77299 87.6329 5.51437 87.6329 5.51437 85.886C5.51437 84.1392 3.77299 84.1392 3.77299 84.1392ZM8.41667 81.5189V86.7594C8.41667 86.7594 8.41667 87.3417 8.99713 87.3417C9.57759 87.3417 9.57759 86.7594 9.57759 86.7594V81.5189C9.57759 81.5189 9.57759 80.9367 8.99713 80.9367C8.41667 80.9367 8.41667 81.5189 8.41667 81.5189ZM11.0287 89.0885V81.5189C11.0287 81.5189 11.0287 80.9367 11.6092 80.9367C12.1897 80.9367 12.1897 81.5189 12.1897 81.5189V89.0885C12.1897 89.0885 12.1897 89.6708 11.6092 89.6708C11.0287 89.6708 11.0287 89.0885 11.0287 89.0885ZM13.6408 81.5189V86.7594C13.6408 86.7594 13.6408 87.3417 14.2213 87.3417C14.8017 87.3417 14.8017 86.7594 14.8017 86.7594V81.5189C14.8017 81.5189 14.8017 80.9367 14.2213 80.9367C13.6408 80.9367 13.6408 81.5189 13.6408 81.5189ZM16.2529 89.0885V81.5189C16.2529 81.5189 16.2529 80.9367 16.8333 80.9367C17.4138 80.9367 17.4138 81.5189 17.4138 81.5189V89.0885C17.4138 89.0885 17.4138 89.6708 16.8333 89.6708C16.2529 89.6708 16.2529 89.0885 16.2529 89.0885ZM18.8649 81.5189V86.7594C18.8649 86.7594 18.8649 87.3417 19.4454 87.3417C20.0259 87.3417 20.0259 86.7594 20.0259 86.7594V81.5189C20.0259 81.5189 20.0259 80.9367 19.4454 80.9367C18.8649 80.9367 18.8649 81.5189 18.8649 81.5189ZM21.1868 89.0885V81.5189C21.1868 81.5189 21.1868 80.9367 21.7672 80.9367C22.3477 80.9367 22.3477 81.5189 22.3477 81.5189V89.0885C22.3477 89.0885 22.3477 89.6708 21.7672 89.6708C21.1868 89.6708 21.1868 89.0885 21.1868 89.0885ZM23.5086 81.5189V86.7594C23.5086 86.7594 23.5086 87.3417 24.0891 87.3417C24.6695 87.3417 24.6695 86.7594 24.6695 86.7594V81.5189C24.6695 81.5189 24.6695 80.9367 24.0891 80.9367C23.5086 80.9367 23.5086 81.5189 23.5086 81.5189ZM26.1207 89.0885V81.5189C26.1207 81.5189 26.1207 80.9367 26.7011 80.9367C27.2816 80.9367 27.2816 81.5189 27.2816 81.5189V89.0885C27.2816 89.0885 27.2816 89.6708 26.7011 89.6708C26.1207 89.6708 26.1207 89.0885 26.1207 89.0885ZM28.7328 81.5189V86.7594C28.7328 86.7594 28.7328 87.3417 29.3132 87.3417C29.8937 87.3417 29.8937 86.7594 29.8937 86.7594V81.5189C29.8937 81.5189 29.8937 80.9367 29.3132 80.9367C28.7328 80.9367 28.7328 81.5189 28.7328 81.5189ZM31.3448 89.0885V81.5189C31.3448 81.5189 31.3448 80.9367 31.9253 80.9367C32.5057 80.9367 32.5057 81.5189 32.5057 81.5189V89.0885C32.5057 89.0885 32.5057 89.6708 31.9253 89.6708C31.3448 89.6708 31.3448 89.0885 31.3448 89.0885ZM33.6667 81.5189V86.7594C33.6667 86.7594 33.6667 87.3417 34.2471 87.3417C34.8276 87.3417 34.8276 86.7594 34.8276 86.7594V81.5189C34.8276 81.5189 34.8276 80.9367 34.2471 80.9367C33.6667 80.9367 33.6667 81.5189 33.6667 81.5189ZM36.2787 89.0885V81.5189C36.2787 81.5189 36.2787 80.9367 36.8592 80.9367C37.4397 80.9367 37.4397 81.5189 37.4397 81.5189V89.0885C37.4397 89.0885 37.4397 89.6708 36.8592 89.6708C36.2787 89.6708 36.2787 89.0885 36.2787 89.0885ZM38.8908 81.5189V86.7594C38.8908 86.7594 38.8908 87.3417 39.4713 87.3417C40.0517 87.3417 40.0517 86.7594 40.0517 86.7594V81.5189C40.0517 81.5189 40.0517 80.9367 39.4713 80.9367C38.8908 80.9367 38.8908 81.5189 38.8908 81.5189ZM41.2126 89.0885V81.5189C41.2126 81.5189 41.2126 80.9367 41.7931 80.9367C42.3736 80.9367 42.3736 81.5189 42.3736 81.5189V89.0885C42.3736 89.0885 42.3736 89.6708 41.7931 89.6708C41.2126 89.6708 41.2126 89.0885 41.2126 89.0885ZM43.8247 81.5189V86.7594C43.8247 86.7594 43.8247 87.3417 44.4052 87.3417C44.9856 87.3417 44.9856 86.7594 44.9856 86.7594V81.5189C44.9856 81.5189 44.9856 80.9367 44.4052 80.9367C43.8247 80.9367 43.8247 81.5189 43.8247 81.5189ZM46.1466 89.0885V81.5189C46.1466 81.5189 46.1466 80.9367 46.727 80.9367C47.3075 80.9367 47.3075 81.5189 47.3075 81.5189V89.0885C47.3075 89.0885 47.3075 89.6708 46.727 89.6708C46.1466 89.6708 46.1466 89.0885 46.1466 89.0885ZM48.7586 81.5189V86.7594C48.7586 86.7594 48.7586 87.3417 49.3391 87.3417C49.9195 87.3417 49.9195 86.7594 49.9195 86.7594V81.5189C49.9195 81.5189 49.9195 80.9367 49.3391 80.9367C48.7586 80.9367 48.7586 81.5189 48.7586 81.5189ZM51.3707 89.0885V81.5189C51.3707 81.5189 51.3707 80.9367 51.9511 80.9367C52.5316 80.9367 52.5316 81.5189 52.5316 81.5189V89.0885C52.5316 89.0885 52.5316 89.6708 51.9511 89.6708C51.3707 89.6708 51.3707 89.0885 51.3707 89.0885ZM53.6925 81.5189V86.7594C53.6925 86.7594 53.6925 87.3417 54.273 87.3417C54.8534 87.3417 54.8534 86.7594 54.8534 86.7594V81.5189C54.8534 81.5189 54.8534 80.9367 54.273 80.9367C53.6925 80.9367 53.6925 81.5189 53.6925 81.5189ZM56.3046 89.0885V81.5189C56.3046 81.5189 56.3046 80.9367 56.8851 80.9367C57.4655 80.9367 57.4655 81.5189 57.4655 81.5189V89.0885C57.4655 89.0885 57.4655 89.6708 56.8851 89.6708C56.3046 89.6708 56.3046 89.0885 56.3046 89.0885ZM58.6264 81.5189V86.7594C58.6264 86.7594 58.6264 87.3417 59.2069 87.3417C59.7874 87.3417 59.7874 86.7594 59.7874 86.7594V81.5189C59.7874 81.5189 59.7874 80.9367 59.2069 80.9367C58.6264 80.9367 58.6264 81.5189 58.6264 81.5189ZM61.2385 89.0885V81.5189C61.2385 81.5189 61.2385 80.9367 61.819 80.9367C62.3994 80.9367 62.3994 81.5189 62.3994 81.5189V89.0885C62.3994 89.0885 62.3994 89.6708 61.819 89.6708C61.2385 89.6708 61.2385 89.0885 61.2385 89.0885ZM63.8506 81.5189V86.7594C63.8506 86.7594 63.8506 87.3417 64.431 87.3417C65.0115 87.3417 65.0115 86.7594 65.0115 86.7594V81.5189C65.0115 81.5189 65.0115 80.9367 64.431 80.9367C63.8506 80.9367 63.8506 81.5189 63.8506 81.5189ZM66.4626 89.0885V81.5189C66.4626 81.5189 66.4626 80.9367 67.0431 80.9367C67.6236 80.9367 67.6236 81.5189 67.6236 81.5189V89.0885C67.6236 89.0885 67.6236 89.6708 67.0431 89.6708C66.4626 89.6708 66.4626 89.0885 66.4626 89.0885ZM69.0747 81.5189V86.7594C69.0747 86.7594 69.0747 87.3417 69.6552 87.3417C70.2356 87.3417 70.2356 86.7594 70.2356 86.7594V81.5189C70.2356 81.5189 70.2356 80.9367 69.6552 80.9367C69.0747 80.9367 69.0747 81.5189 69.0747 81.5189ZM71.3966 89.0885V81.5189C71.3966 81.5189 71.3966 80.9367 71.977 80.9367C72.5575 80.9367 72.5575 81.5189 72.5575 81.5189V89.0885C72.5575 89.0885 72.5575 89.6708 71.977 89.6708C71.3966 89.6708 71.3966 89.0885 71.3966 89.0885ZM74.0086 81.5189V86.7594C74.0086 86.7594 74.0086 87.3417 74.5891 87.3417C75.1695 87.3417 75.1695 86.7594 75.1695 86.7594V81.5189C75.1695 81.5189 75.1695 80.9367 74.5891 80.9367C74.0086 80.9367 74.0086 81.5189 74.0086 81.5189ZM76.3305 89.0885V81.5189C76.3305 81.5189 76.3305 80.9367 76.9109 80.9367C77.4914 80.9367 77.4914 81.5189 77.4914 81.5189V89.0885C77.4914 89.0885 77.4914 89.6708 76.9109 89.6708C76.3305 89.6708 76.3305 89.0885 76.3305 89.0885ZM78.9425 81.5189V86.7594C78.9425 86.7594 78.9425 87.3417 79.523 87.3417C80.1034 87.3417 80.1034 86.7594 80.1034 86.7594V81.5189C80.1034 81.5189 80.1034 80.9367 79.523 80.9367C78.9425 80.9367 78.9425 81.5189 78.9425 81.5189ZM81.2644 89.0885V81.5189C81.2644 81.5189 81.2644 80.9367 81.8448 80.9367C82.4253 80.9367 82.4253 81.5189 82.4253 81.5189V89.0885C82.4253 89.0885 82.4253 89.6708 81.8448 89.6708C81.2644 89.6708 81.2644 89.0885 81.2644 89.0885ZM83.8764 81.5189V86.7594C83.8764 86.7594 83.8764 87.3417 84.4569 87.3417C85.0374 87.3417 85.0374 86.7594 85.0374 86.7594V81.5189C85.0374 81.5189 85.0374 80.9367 84.4569 80.9367C83.8764 80.9367 83.8764 81.5189 83.8764 81.5189ZM86.4885 89.0885V81.5189C86.4885 81.5189 86.4885 80.9367 87.069 80.9367C87.6494 80.9367 87.6494 81.5189 87.6494 81.5189V89.0885C87.6494 89.0885 87.6494 89.6708 87.069 89.6708C86.4885 89.6708 86.4885 89.0885 86.4885 89.0885ZM89.1006 81.5189V86.7594C89.1006 86.7594 89.1006 87.3417 89.681 87.3417C90.2615 87.3417 90.2615 86.7594 90.2615 86.7594V81.5189C90.2615 81.5189 90.2615 80.9367 89.681 80.9367C89.1006 80.9367 89.1006 81.5189 89.1006 81.5189ZM91.7126 89.0885V81.5189C91.7126 81.5189 91.7126 80.9367 92.2931 80.9367C92.8736 80.9367 92.8736 81.5189 92.8736 81.5189V89.0885C92.8736 89.0885 92.8736 89.6708 92.2931 89.6708C91.7126 89.6708 91.7126 89.0885 91.7126 89.0885Z" fill="#3B1D1E"/>
<path d="M29.023 5.53164L0 26.2025V78.3165H29.023V5.82278M29.023 5.53164V0.582275L101 24.4557V29.9873L29.023 5.82278M29.023 5.53164V5.82278M80.9741 31.7342C80.9933 31.7533 81.0124 31.7725 81.0316 31.7916M81.0316 31.7916C84.3756 35.1481 87.4788 38.4334 80.1034 39.3038C72.2905 37.8343 75.5631 35.722 79.2328 31.7342C73.1379 30.8608 69.6552 34.6456 70.5259 37.2658C71.0994 38.9916 74.3958 41.6329 75.4598 43.0886V44.8354L74.8793 45.4177V54.443L74.0086 55.3165V78.3165H65.592V20.962L94.0345 30.2785L94.3247 78.3165H86.1983V55.3165L85.3276 54.443V45.4177H84.7471V43.3797L85.0374 43.0886C86.1983 40.4684 89.4976 38.2767 89.681 37.2658C90.6098 32.1418 84.3013 31.4814 81.0316 31.7916ZM94.3247 80.0633V91.4177H0V80.0633H94.3247ZM79.523 78.3165H80.9741V55.4911L82.1351 54.7342V49.4937C82.1351 49.4937 81.2644 47.7468 80.1034 47.7468C78.9425 47.7468 78.3621 49.4937 78.3621 49.4937V54.7342L79.523 55.3165V78.3165ZM46.727 78.3165H60.9483C62.198 78.0929 62.6757 77.5956 63.2701 76.2785V20.962H55.7241L56.5948 22.1266L55.4339 22.7089L56.3046 23.5823L55.1437 24.4557L56.3046 25.038L54.8534 26.2025L56.0144 26.7848L54.5632 27.6582L55.7241 28.5316L54.273 29.4051L55.4339 29.9873L53.9828 30.8608L55.4339 31.7342L53.9828 32.3165L54.8534 33.1899L53.6925 34.0633L54.8534 34.9367L53.4023 35.519L54.5632 36.3924L53.4023 36.9747L54.273 37.8481L53.1121 38.7215L53.9828 39.3038L52.8218 40.1772L53.9828 41.0506L52.5316 41.924L53.6925 42.5063L51.9511 43.3797L53.6925 43.962L51.9511 45.1266L53.1121 45.7089L51.6609 46.5823L52.8218 47.4557L51.6609 48.038L52.5316 48.9114L51.3707 49.7848L52.5316 50.3671L51.0805 51.2405L51.9511 51.8228L50.7902 52.6962L51.6609 53.5696L50.5 54.443L51.6609 55.0253L50.2098 55.8987L51.3707 56.481L49.9195 57.3544L51.0805 57.9367L49.6293 58.8101L50.7902 59.3924L49.3391 60.557L50.5 61.4304C48.9018 62.0377 48.0541 62.5594 46.727 64.0506L44.1149 74.8228C44.3771 76.8369 44.8734 77.6567 46.727 78.3165ZM47.0172 73.9494H60.658V65.2152L49.3391 64.924L47.0172 73.9494ZM52.2414 62.8861C52.2414 62.0127 53.1121 62.0127 53.1121 62.0127C53.1121 62.0127 53.9828 62.0127 53.9828 62.8861C53.9828 63.7595 53.1121 63.7595 53.1121 63.7595C53.1121 63.7595 52.2414 63.7595 52.2414 62.8861ZM59.2069 62.8861C59.2069 62.0127 60.0776 62.0127 60.0776 62.0127C60.0776 62.0127 60.9483 62.0127 60.9483 62.8861C60.9483 63.7595 60.0776 63.7595 60.0776 63.7595C60.0776 63.7595 59.2069 63.7595 59.2069 62.8861ZM43.2443 36.9747C43.2443 36.9747 43.2443 36.1013 44.1149 36.1013C44.9856 36.1013 44.9856 36.9747 44.9856 36.9747C44.9856 36.9747 44.9856 37.8481 44.1149 37.8481C43.2443 37.8481 43.2443 36.9747 43.2443 36.9747ZM36.8592 36.9747C36.8592 36.9747 36.8592 36.1013 37.7299 36.1013C38.6006 36.1013 38.6006 36.9747 38.6006 36.9747C38.6006 36.9747 38.6006 37.8481 37.7299 37.8481C36.8592 37.8481 36.8592 36.9747 36.8592 36.9747ZM36.8592 34.6456H47.3075L49.6293 25.038H36.9277L36.8592 34.6456ZM59.4971 24.4557C59.4971 23.5823 60.3678 23.5823 60.3678 23.5823C60.3678 23.5823 61.2385 23.5823 61.2385 24.4557C61.2385 25.3291 60.3678 25.3291 60.3678 25.3291C60.3678 25.3291 59.4971 25.3291 59.4971 24.4557ZM36.569 74.8228C36.569 73.9494 37.4397 73.9494 37.4397 73.9494C37.4397 73.9494 38.3103 73.9494 38.3103 74.8228C38.3103 75.6962 37.4397 75.6962 37.4397 75.6962C37.4397 75.6962 36.569 75.6962 36.569 74.8228ZM34.2471 23.2911C34.8314 21.6282 35.4999 21.2607 36.9277 20.962H50.375C51.9791 21.7044 52.5513 22.2948 52.5316 23.8734V24.7468L49.3391 36.1013C48.4392 37.3762 47.6938 37.8403 45.8563 38.1392L47.0172 39.3038L45.5661 40.1772L46.4368 40.7595L45.2759 41.6329L46.4368 42.5063L44.9856 43.3797L46.1466 43.962L44.4052 44.8354L45.8563 45.7089L44.4052 46.5823L45.5661 47.1646L44.4052 48.038L45.5661 48.9114L44.1149 49.7848L45.2759 50.3671L43.8247 51.2405L44.9856 52.1139L43.5345 52.9873L44.6954 53.5696L43.2443 54.1519L44.6954 55.3165L43.2443 56.1899L44.4052 56.7721L42.954 57.6456L43.8247 58.2278L42.3736 59.3924L43.5345 59.9747L42.3736 60.8481L43.2443 61.4304L42.0833 62.3038L43.2443 63.1772L41.7931 63.7595L42.954 64.6329L41.7931 65.5063L42.6638 66.3797L41.7931 66.962L42.954 67.5443L41.5029 68.7089L42.3736 69L41.2126 70.1646L42.3736 70.7468L40.9224 71.6203L42.0833 72.2025L40.6322 73.0759L41.7931 73.9494L40.6322 74.5316L41.5029 75.4051L40.6322 75.9873L41.2126 76.8608L40.6322 77.7342V78.3165H34.2471V23.2911ZM2.03161 85.8861C2.03161 84.1392 3.77299 84.1392 3.77299 84.1392C3.77299 84.1392 5.51437 84.1392 5.51437 85.8861C5.51437 87.6329 3.77299 87.6329 3.77299 87.6329C3.77299 87.6329 2.03161 87.6329 2.03161 85.8861ZM8.41667 81.519V86.7595C8.41667 86.7595 8.41667 87.3418 8.99713 87.3418C9.57759 87.3418 9.57759 86.7595 9.57759 86.7595V81.519C9.57759 81.519 9.57759 80.9367 8.99713 80.9367C8.41667 80.9367 8.41667 81.519 8.41667 81.519ZM11.0287 81.519V89.0886C11.0287 89.0886 11.0287 89.6709 11.6092 89.6709C12.1897 89.6709 12.1897 89.0886 12.1897 89.0886V81.519C12.1897 81.519 12.1897 80.9367 11.6092 80.9367C11.0287 80.9367 11.0287 81.519 11.0287 81.519ZM16.2529 81.519V89.0886C16.2529 89.0886 16.2529 89.6709 16.8333 89.6709C17.4138 89.6709 17.4138 89.0886 17.4138 89.0886V81.519C17.4138 81.519 17.4138 80.9367 16.8333 80.9367C16.2529 80.9367 16.2529 81.519 16.2529 81.519ZM21.1868 81.519V89.0886C21.1868 89.0886 21.1868 89.6709 21.7672 89.6709C22.3477 89.6709 22.3477 89.0886 22.3477 89.0886V81.519C22.3477 81.519 22.3477 80.9367 21.7672 80.9367C21.1868 80.9367 21.1868 81.519 21.1868 81.519ZM26.1207 81.519V89.0886C26.1207 89.0886 26.1207 89.6709 26.7011 89.6709C27.2816 89.6709 27.2816 89.0886 27.2816 89.0886V81.519C27.2816 81.519 27.2816 80.9367 26.7011 80.9367C26.1207 80.9367 26.1207 81.519 26.1207 81.519ZM31.3448 81.519V89.0886C31.3448 89.0886 31.3448 89.6709 31.9253 89.6709C32.5057 89.6709 32.5057 89.0886 32.5057 89.0886V81.519C32.5057 81.519 32.5057 80.9367 31.9253 80.9367C31.3448 80.9367 31.3448 81.519 31.3448 81.519ZM36.2787 81.519V89.0886C36.2787 89.0886 36.2787 89.6709 36.8592 89.6709C37.4397 89.6709 37.4397 89.0886 37.4397 89.0886V81.519C37.4397 81.519 37.4397 80.9367 36.8592 80.9367C36.2787 80.9367 36.2787 81.519 36.2787 81.519ZM41.2126 81.519V89.0886C41.2126 89.0886 41.2126 89.6709 41.7931 89.6709C42.3736 89.6709 42.3736 89.0886 42.3736 89.0886V81.519C42.3736 81.519 42.3736 80.9367 41.7931 80.9367C41.2126 80.9367 41.2126 81.519 41.2126 81.519ZM46.1466 81.519V89.0886C46.1466 89.0886 46.1466 89.6709 46.727 89.6709C47.3075 89.6709 47.3075 89.0886 47.3075 89.0886V81.519C47.3075 81.519 47.3075 80.9367 46.727 80.9367C46.1466 80.9367 46.1466 81.519 46.1466 81.519ZM51.3707 81.519V89.0886C51.3707 89.0886 51.3707 89.6709 51.9511 89.6709C52.5316 89.6709 52.5316 89.0886 52.5316 89.0886V81.519C52.5316 81.519 52.5316 80.9367 51.9511 80.9367C51.3707 80.9367 51.3707 81.519 51.3707 81.519ZM56.3046 81.519V89.0886C56.3046 89.0886 56.3046 89.6709 56.8851 89.6709C57.4655 89.6709 57.4655 89.0886 57.4655 89.0886V81.519C57.4655 81.519 57.4655 80.9367 56.8851 80.9367C56.3046 80.9367 56.3046 81.519 56.3046 81.519ZM61.2385 81.519V89.0886C61.2385 89.0886 61.2385 89.6709 61.819 89.6709C62.3994 89.6709 62.3994 89.0886 62.3994 89.0886V81.519C62.3994 81.519 62.3994 80.9367 61.819 80.9367C61.2385 80.9367 61.2385 81.519 61.2385 81.519ZM66.4626 81.519V89.0886C66.4626 89.0886 66.4626 89.6709 67.0431 89.6709C67.6236 89.6709 67.6236 89.0886 67.6236 89.0886V81.519C67.6236 81.519 67.6236 80.9367 67.0431 80.9367C66.4626 80.9367 66.4626 81.519 66.4626 81.519ZM71.3966 81.519V89.0886C71.3966 89.0886 71.3966 89.6709 71.977 89.6709C72.5575 89.6709 72.5575 89.0886 72.5575 89.0886V81.519C72.5575 81.519 72.5575 80.9367 71.977 80.9367C71.3966 80.9367 71.3966 81.519 71.3966 81.519ZM76.3305 81.519V89.0886C76.3305 89.0886 76.3305 89.6709 76.9109 89.6709C77.4914 89.6709 77.4914 89.0886 77.4914 89.0886V81.519C77.4914 81.519 77.4914 80.9367 76.9109 80.9367C76.3305 80.9367 76.3305 81.519 76.3305 81.519ZM81.2644 81.519V89.0886C81.2644 89.0886 81.2644 89.6709 81.8448 89.6709C82.4253 89.6709 82.4253 89.0886 82.4253 89.0886V81.519C82.4253 81.519 82.4253 80.9367 81.8448 80.9367C81.2644 80.9367 81.2644 81.519 81.2644 81.519ZM86.4885 81.519V89.0886C86.4885 89.0886 86.4885 89.6709 87.069 89.6709C87.6494 89.6709 87.6494 89.0886 87.6494 89.0886V81.519C87.6494 81.519 87.6494 80.9367 87.069 80.9367C86.4885 80.9367 86.4885 81.519 86.4885 81.519ZM91.7126 81.519V89.0886C91.7126 89.0886 91.7126 89.6709 92.2931 89.6709C92.8736 89.6709 92.8736 89.0886 92.8736 89.0886V81.519C92.8736 81.519 92.8736 80.9367 92.2931 80.9367C91.7126 80.9367 91.7126 81.519 91.7126 81.519ZM13.6408 81.519V86.7595C13.6408 86.7595 13.6408 87.3418 14.2213 87.3418C14.8017 87.3418 14.8017 86.7595 14.8017 86.7595V81.519C14.8017 81.519 14.8017 80.9367 14.2213 80.9367C13.6408 80.9367 13.6408 81.519 13.6408 81.519ZM18.8649 81.519V86.7595C18.8649 86.7595 18.8649 87.3418 19.4454 87.3418C20.0259 87.3418 20.0259 86.7595 20.0259 86.7595V81.519C20.0259 81.519 20.0259 80.9367 19.4454 80.9367C18.8649 80.9367 18.8649 81.519 18.8649 81.519ZM23.5086 81.519V86.7595C23.5086 86.7595 23.5086 87.3418 24.0891 87.3418C24.6695 87.3418 24.6695 86.7595 24.6695 86.7595V81.519C24.6695 81.519 24.6695 80.9367 24.0891 80.9367C23.5086 80.9367 23.5086 81.519 23.5086 81.519ZM28.7328 81.519V86.7595C28.7328 86.7595 28.7328 87.3418 29.3132 87.3418C29.8937 87.3418 29.8937 86.7595 29.8937 86.7595V81.519C29.8937 81.519 29.8937 80.9367 29.3132 80.9367C28.7328 80.9367 28.7328 81.519 28.7328 81.519ZM33.6667 81.519V86.7595C33.6667 86.7595 33.6667 87.3418 34.2471 87.3418C34.8276 87.3418 34.8276 86.7595 34.8276 86.7595V81.519C34.8276 81.519 34.8276 80.9367 34.2471 80.9367C33.6667 80.9367 33.6667 81.519 33.6667 81.519ZM38.8908 81.519V86.7595C38.8908 86.7595 38.8908 87.3418 39.4713 87.3418C40.0517 87.3418 40.0517 86.7595 40.0517 86.7595V81.519C40.0517 81.519 40.0517 80.9367 39.4713 80.9367C38.8908 80.9367 38.8908 81.519 38.8908 81.519ZM43.8247 81.519V86.7595C43.8247 86.7595 43.8247 87.3418 44.4052 87.3418C44.9856 87.3418 44.9856 86.7595 44.9856 86.7595V81.519C44.9856 81.519 44.9856 80.9367 44.4052 80.9367C43.8247 80.9367 43.8247 81.519 43.8247 81.519ZM48.7586 81.519V86.7595C48.7586 86.7595 48.7586 87.3418 49.3391 87.3418C49.9195 87.3418 49.9195 86.7595 49.9195 86.7595V81.519C49.9195 81.519 49.9195 80.9367 49.3391 80.9367C48.7586 80.9367 48.7586 81.519 48.7586 81.519ZM53.6925 81.519V86.7595C53.6925 86.7595 53.6925 87.3418 54.273 87.3418C54.8534 87.3418 54.8534 86.7595 54.8534 86.7595V81.519C54.8534 81.519 54.8534 80.9367 54.273 80.9367C53.6925 80.9367 53.6925 81.519 53.6925 81.519ZM58.6264 81.519V86.7595C58.6264 86.7595 58.6264 87.3418 59.2069 87.3418C59.7874 87.3418 59.7874 86.7595 59.7874 86.7595V81.519C59.7874 81.519 59.7874 80.9367 59.2069 80.9367C58.6264 80.9367 58.6264 81.519 58.6264 81.519ZM63.8506 81.519V86.7595C63.8506 86.7595 63.8506 87.3418 64.431 87.3418C65.0115 87.3418 65.0115 86.7595 65.0115 86.7595V81.519C65.0115 81.519 65.0115 80.9367 64.431 80.9367C63.8506 80.9367 63.8506 81.519 63.8506 81.519ZM69.0747 81.519V86.7595C69.0747 86.7595 69.0747 87.3418 69.6552 87.3418C70.2356 87.3418 70.2356 86.7595 70.2356 86.7595V81.519C70.2356 81.519 70.2356 80.9367 69.6552 80.9367C69.0747 80.9367 69.0747 81.519 69.0747 81.519ZM74.0086 81.519V86.7595C74.0086 86.7595 74.0086 87.3418 74.5891 87.3418C75.1695 87.3418 75.1695 86.7595 75.1695 86.7595V81.519C75.1695 81.519 75.1695 80.9367 74.5891 80.9367C74.0086 80.9367 74.0086 81.519 74.0086 81.519ZM78.9425 81.519V86.7595C78.9425 86.7595 78.9425 87.3418 79.523 87.3418C80.1034 87.3418 80.1034 86.7595 80.1034 86.7595V81.519C80.1034 81.519 80.1034 80.9367 79.523 80.9367C78.9425 80.9367 78.9425 81.519 78.9425 81.519ZM83.8764 81.519V86.7595C83.8764 86.7595 83.8764 87.3418 84.4569 87.3418C85.0374 87.3418 85.0374 86.7595 85.0374 86.7595V81.519C85.0374 81.519 85.0374 80.9367 84.4569 80.9367C83.8764 80.9367 83.8764 81.519 83.8764 81.519ZM89.1006 81.519V86.7595C89.1006 86.7595 89.1006 87.3418 89.681 87.3418C90.2615 87.3418 90.2615 86.7595 90.2615 86.7595V81.519C90.2615 81.519 90.2615 80.9367 89.681 80.9367C89.1006 80.9367 89.1006 81.519 89.1006 81.519Z" stroke="white" stroke-width="0.5"/>
<path d="M7.83553 28.5317C8.41599 28.5317 8.70622 29.114 8.70622 29.114V47.9053C8.70622 47.9053 8.41599 48.3292 7.83553 48.3292C7.25507 48.3292 6.96484 47.9053 6.96484 47.9053V29.114C6.96484 29.114 7.25507 28.5317 7.83553 28.5317Z" fill="white" stroke="white"/>
<path d="M7.83587 75.6962L6.67495 73.9493V56.1899H4.06288L3.48242 55.8987V54.7342C4.43775 54.1253 4.78206 53.573 5.2238 52.405V49.4937C4.93694 48.011 4.55404 47.3196 3.48242 46.2911V29.6962C3.48242 29.6962 4.35311 26.4937 7.83587 26.4937C11.3186 26.4937 11.8991 29.6962 11.8991 29.6962V46.2911C10.7909 47.3646 10.5201 48.0875 10.1577 49.4937V52.405C10.6124 53.6041 11.005 54.1369 11.8991 54.7342V55.8987L11.3186 56.1899H8.99679V73.9493L7.83587 75.6962Z" fill="white"/>
<path d="M6.67495 73.9493L7.83587 75.6962L8.99679 73.9493V56.1899H11.3186L11.8991 55.8987V54.7342C11.005 54.1369 10.6124 53.6041 10.1577 52.405V49.4937C10.5201 48.0875 10.7909 47.3646 11.8991 46.2911V29.6962C11.8991 29.6962 11.3186 26.4937 7.83587 26.4937C4.35311 26.4937 3.48242 29.6962 3.48242 29.6962V46.2911C4.55404 47.3196 4.93694 48.011 5.2238 49.4937V52.405C4.78206 53.573 4.43775 54.1253 3.48242 54.7342V55.8987L4.06288 56.1899H6.67495M6.67495 73.9493C6.67495 67.0138 6.67495 63.1254 6.67495 56.1899M6.67495 73.9493V56.1899" stroke="white"/>
<path d="M21.7675 26.7849L22.6382 27.9495V45.709H25.2503L25.8307 46.0001V47.1647C24.8754 47.7735 24.5311 48.3258 24.0893 49.4938V52.4052C24.3762 53.8878 24.7591 54.5792 25.8307 55.6077V72.2026C25.8307 72.2026 24.96 75.4052 21.4773 75.4052C17.9945 75.4052 17.4141 72.2026 17.4141 72.2026V55.6077C18.5223 54.5342 18.793 53.8113 19.1554 52.4052V49.4938C18.7008 48.2947 18.3081 47.762 17.4141 47.1647V46.0001L17.9945 45.709H20.6066V27.9495L21.7675 26.7849Z" fill="white" stroke="white"/>
<path d="M7.83553 28.5317C8.41599 28.5317 8.70622 29.114 8.70622 29.114V47.9053C8.70622 47.9053 8.41599 48.3292 7.83553 48.3292C7.25507 48.3292 6.96484 47.9053 6.96484 47.9053V29.114C6.96484 29.114 7.25507 28.5317 7.83553 28.5317Z" fill="#3B1D1E" stroke="#3B1D1E"/>
<path d="M21.7672 53.5696C22.3476 53.5696 22.6379 54.1519 22.6379 54.1519V72.9432C22.6379 72.9432 22.3476 73.367 21.7672 73.367C21.1867 73.367 20.8965 72.9432 20.8965 72.9432V54.1519C20.8965 54.1519 21.1867 53.5696 21.7672 53.5696Z" fill="#3B1D1E" stroke="#3B1D1E"/>
</g>
</g>
</g>
<defs>
<clipPath id="clip0_32_407">
<rect width="317" height="92" fill="white"/>
</clipPath>
<clipPath id="clip1_32_407">
<rect width="101" height="92" fill="white"/>
</clipPath>
</defs>
</svg>
