<svg width="216" height="224" viewBox="0 0 216 224" fill="none" xmlns="http://www.w3.org/2000/svg">
<g clip-path="url(#clip0_54_470)">
<g clip-path="url(#clip1_54_470)">
<path d="M6.42578 219.927V221H2.10547V219.927H6.42578ZM2.33105 211.047V221H1.07324V211.047H2.33105ZM5.84473 215.326V216.399H2.10547V215.326H5.84473ZM6.35742 211.047V212.127H2.10547V211.047H6.35742ZM13.4734 219.927V221H9.34445V219.927H13.4734ZM9.57004 211.047V221H8.31223V211.047H9.57004ZM16.5629 211.047V221H15.3051V211.047H16.5629ZM22.0246 211.047V221H20.7804V211.047H22.0246ZM24.6427 211.047V212.127H18.1691V211.047H24.6427ZM31.745 219.927V221H27.4247V219.927H31.745ZM27.6503 211.047V221H26.3925V211.047H27.6503ZM31.1639 215.326V216.399H27.4247V215.326H31.1639ZM31.6766 211.047V212.127H27.4247V211.047H31.6766ZM41.4788 218.484C41.4788 218.252 41.4515 218.047 41.3968 217.869C41.3421 217.687 41.2464 217.523 41.1097 217.377C40.973 217.231 40.7816 217.092 40.5355 216.96C40.2894 216.828 39.9772 216.693 39.5989 216.557C39.1888 216.411 38.8174 216.249 38.4847 216.071C38.152 215.889 37.8672 215.682 37.6302 215.449C37.3978 215.217 37.2178 214.95 37.0902 214.649C36.9626 214.349 36.8988 214.005 36.8988 213.617C36.8988 213.23 36.9648 212.872 37.097 212.544C37.2337 212.216 37.4251 211.931 37.6712 211.689C37.9219 211.443 38.2226 211.252 38.5736 211.115C38.9245 210.979 39.3164 210.91 39.7493 210.91C40.3965 210.91 40.9411 211.054 41.3831 211.341C41.8297 211.623 42.167 211.995 42.3948 212.455C42.6227 212.911 42.7366 213.398 42.7366 213.918H41.4788C41.4788 213.544 41.4173 213.214 41.2943 212.927C41.1758 212.635 40.9889 212.407 40.7337 212.243C40.4831 212.075 40.1549 211.99 39.7493 211.99C39.3848 211.99 39.084 212.061 38.847 212.202C38.6146 212.343 38.4414 212.535 38.3275 212.776C38.2181 213.018 38.1634 213.294 38.1634 213.604C38.1634 213.813 38.1999 214.005 38.2728 214.178C38.3457 214.346 38.4573 214.504 38.6077 214.649C38.7627 214.795 38.9541 214.93 39.182 215.053C39.4144 215.176 39.6878 215.294 40.0023 215.408C40.4899 215.568 40.9069 215.745 41.2532 215.941C41.5996 216.137 41.8821 216.358 42.1009 216.604C42.3196 216.846 42.4792 217.122 42.5794 217.432C42.6842 217.737 42.7366 218.083 42.7366 218.471C42.7366 218.876 42.6683 219.243 42.5316 219.571C42.3994 219.899 42.2057 220.18 41.9505 220.412C41.6953 220.645 41.3877 220.825 41.0277 220.952C40.6676 221.075 40.262 221.137 39.8109 221.137C39.4189 221.137 39.0338 221.073 38.6556 220.945C38.2819 220.818 37.9424 220.626 37.637 220.371C37.3317 220.116 37.0879 219.801 36.9056 219.428C36.7233 219.049 36.6321 218.612 36.6321 218.115H37.89C37.89 218.457 37.9401 218.751 38.0404 218.997C38.1406 219.239 38.2796 219.439 38.4573 219.599C38.6351 219.758 38.8379 219.877 39.0657 219.954C39.2982 220.027 39.5465 220.063 39.8109 220.063C40.1754 220.063 40.4808 220 40.7269 219.872C40.9775 219.744 41.1644 219.562 41.2874 219.325C41.415 219.088 41.4788 218.808 41.4788 218.484ZM50.0166 219.927V221H45.6963V219.927H50.0166ZM45.9219 211.047V221H44.6641V211.047H45.9219ZM49.4356 215.326V216.399H45.6963V215.326H49.4356ZM49.9483 211.047V212.127H45.6963V211.047H49.9483ZM54.6375 219.489L57.03 211.047H58.3972L55.3074 221H54.3435L54.6375 219.489ZM52.491 211.047L54.863 219.489L55.1775 221H54.2136L51.1238 211.047H52.491ZM61.3432 211.047V221H60.0854V211.047H61.3432ZM68.7941 217.835H70.052C70.0201 218.519 69.8811 219.109 69.635 219.605C69.3934 220.098 69.0402 220.476 68.5754 220.74C68.1151 221.005 67.5386 221.137 66.8459 221.137C66.3492 221.137 65.9003 221.039 65.4992 220.843C65.0982 220.647 64.7541 220.367 64.467 220.002C64.1844 219.633 63.968 219.191 63.8176 218.676C63.6672 218.161 63.592 217.582 63.592 216.939V215.101C63.592 214.463 63.6672 213.886 63.8176 213.371C63.9725 212.856 64.1936 212.416 64.4807 212.052C64.7723 211.683 65.1255 211.4 65.5402 211.204C65.9595 211.008 66.4335 210.91 66.9621 210.91C67.6092 210.91 68.1561 211.04 68.6027 211.3C69.0539 211.555 69.4003 211.931 69.6418 212.428C69.8879 212.92 70.0246 213.524 70.052 214.239H68.7941C68.7622 213.715 68.6802 213.289 68.548 212.961C68.4159 212.628 68.2199 212.384 67.9602 212.229C67.7049 212.07 67.3723 211.99 66.9621 211.99C66.5975 211.99 66.2808 212.063 66.0119 212.209C65.7476 212.355 65.5288 212.564 65.3557 212.838C65.187 213.107 65.0594 213.433 64.9729 213.815C64.8908 214.194 64.8498 214.618 64.8498 215.087V216.939C64.8498 217.377 64.884 217.785 64.9523 218.163C65.0253 218.541 65.1392 218.874 65.2941 219.161C65.4536 219.444 65.661 219.665 65.9162 219.824C66.1714 219.984 66.4813 220.063 66.8459 220.063C67.3062 220.063 67.6708 219.988 67.9396 219.838C68.2085 219.688 68.4068 219.448 68.5344 219.12C68.6665 218.792 68.7531 218.364 68.7941 217.835ZM77.3866 219.927V221H73.0663V219.927H77.3866ZM73.2919 211.047V221H72.0341V211.047H73.2919ZM76.8056 215.326V216.399H73.0663V215.326H76.8056ZM77.3183 211.047V212.127H73.0663V211.047H77.3183ZM85.9925 211.929L83.2718 221H81.9867L85.1927 211.047H85.9994L85.9925 211.929ZM88.1937 221L85.473 211.929L85.4593 211.047H86.2728L89.4789 221H88.1937ZM88.1937 217.315V218.396H83.3949V217.315H88.1937ZM93.2589 219.489L95.6514 211.047H97.0186L93.9288 221H92.9649L93.2589 219.489ZM91.1124 211.047L93.4845 219.489L93.7989 221H92.835L89.7452 211.047H91.1124ZM101.359 211.929L98.6385 221H97.3533L100.559 211.047H101.366L101.359 211.929ZM103.56 221L100.84 211.929L100.826 211.047H101.639L104.846 221H103.56ZM103.56 217.315V218.396H98.7615V217.315H103.56ZM107.805 211.047V221H106.547V211.047H107.805ZM113.287 216.345H111.264L111.25 215.285H113.13C113.413 215.285 113.663 215.221 113.882 215.094C114.101 214.966 114.272 214.784 114.395 214.547C114.522 214.305 114.586 214.018 114.586 213.686C114.586 213.321 114.531 213.025 114.422 212.797C114.317 212.564 114.156 212.396 113.937 212.291C113.723 212.182 113.449 212.127 113.116 212.127H111.531V221H110.273V211.047H113.116C113.545 211.047 113.928 211.099 114.265 211.204C114.602 211.304 114.887 211.464 115.119 211.683C115.356 211.897 115.536 212.17 115.659 212.503C115.782 212.836 115.844 213.234 115.844 213.699C115.844 214.109 115.751 214.481 115.564 214.813C115.381 215.142 115.126 215.41 114.798 215.62C114.47 215.83 114.092 215.964 113.663 216.023L113.287 216.345ZM113.239 221H110.744L111.476 219.927H113.239C113.568 219.927 113.846 219.854 114.073 219.708C114.301 219.562 114.475 219.357 114.593 219.093C114.716 218.824 114.778 218.507 114.778 218.143C114.778 217.773 114.727 217.454 114.627 217.186C114.527 216.917 114.367 216.709 114.149 216.563C113.93 216.418 113.643 216.345 113.287 216.345H111.667L111.681 215.285H113.868L114.149 215.668C114.559 215.709 114.903 215.846 115.181 216.078C115.463 216.306 115.675 216.598 115.817 216.953C115.962 217.309 116.035 217.701 116.035 218.129C116.035 218.749 115.919 219.273 115.687 219.701C115.459 220.125 115.135 220.449 114.716 220.672C114.297 220.891 113.805 221 113.239 221ZM123.356 219.927V221H119.228V219.927H123.356ZM119.453 211.047V221H118.195V211.047H119.453ZM130.486 219.927V221H126.166V219.927H130.486ZM126.391 211.047V221H125.133V211.047H126.391ZM129.905 215.326V216.399H126.166V215.326H129.905ZM130.418 211.047V212.127H126.166V211.047H130.418ZM138.791 211.047V221H137.547V211.047H138.791ZM141.409 211.047V212.127H134.936V211.047H141.409ZM149.441 215.162V216.892C149.441 217.593 149.364 218.211 149.209 218.744C149.058 219.273 148.837 219.715 148.546 220.07C148.254 220.426 147.903 220.692 147.493 220.87C147.083 221.048 146.62 221.137 146.105 221.137C145.609 221.137 145.155 221.048 144.745 220.87C144.335 220.692 143.982 220.426 143.685 220.07C143.389 219.715 143.159 219.273 142.995 218.744C142.835 218.211 142.756 217.593 142.756 216.892V215.162C142.756 214.46 142.835 213.845 142.995 213.316C143.154 212.783 143.382 212.339 143.679 211.983C143.975 211.628 144.328 211.361 144.738 211.184C145.148 211.001 145.602 210.91 146.098 210.91C146.613 210.91 147.076 211.001 147.486 211.184C147.901 211.361 148.252 211.628 148.539 211.983C148.831 212.339 149.054 212.783 149.209 213.316C149.364 213.845 149.441 214.46 149.441 215.162ZM148.197 216.892V215.148C148.197 214.602 148.152 214.132 148.06 213.74C147.969 213.344 147.835 213.02 147.657 212.77C147.479 212.519 147.261 212.334 147.001 212.216C146.741 212.093 146.44 212.031 146.098 212.031C145.775 212.031 145.483 212.093 145.223 212.216C144.968 212.334 144.75 212.519 144.567 212.77C144.385 213.02 144.244 213.344 144.143 213.74C144.048 214.132 144 214.602 144 215.148V216.892C144 217.443 144.048 217.917 144.143 218.313C144.244 218.705 144.385 219.029 144.567 219.284C144.754 219.535 144.977 219.722 145.237 219.845C145.497 219.963 145.786 220.022 146.105 220.022C146.447 220.022 146.748 219.963 147.008 219.845C147.272 219.722 147.491 219.535 147.664 219.284C147.842 219.029 147.974 218.705 148.06 218.313C148.152 217.917 148.197 217.443 148.197 216.892ZM160.515 219.927V221H156.195V219.927H160.515ZM156.42 211.047V221H155.162V211.047H156.42ZM159.934 215.326V216.399H156.195V215.326H159.934ZM160.447 211.047V212.127H156.195V211.047H160.447ZM165.136 219.489L167.528 211.047H168.896L165.806 221H164.842L165.136 219.489ZM162.989 211.047L165.361 219.489L165.676 221H164.712L161.622 211.047H162.989ZM175.882 219.927V221H171.561V219.927H175.882ZM171.787 211.047V221H170.529V211.047H171.787ZM175.301 215.326V216.399H171.561V215.326H175.301ZM175.813 211.047V212.127H171.561V211.047H175.813ZM177.775 211.047H180.557C181.204 211.047 181.747 211.161 182.184 211.389C182.626 211.617 182.959 211.954 183.182 212.4C183.41 212.842 183.524 213.387 183.524 214.034C183.524 214.49 183.449 214.907 183.298 215.285C183.148 215.659 182.929 215.978 182.642 216.242C182.355 216.502 182.006 216.696 181.596 216.823L181.254 216.967H178.773L178.759 215.894H180.543C180.926 215.894 181.245 215.812 181.5 215.647C181.756 215.479 181.947 215.253 182.075 214.971C182.202 214.688 182.266 214.376 182.266 214.034C182.266 213.651 182.209 213.316 182.095 213.029C181.981 212.742 181.799 212.521 181.548 212.366C181.302 212.207 180.972 212.127 180.557 212.127H179.033V221H177.775V211.047ZM182.553 221L180.571 216.488L181.876 216.481L183.9 220.918V221H182.553ZM185.718 211.047L187.748 216.044L189.785 211.047H191.207L188.377 217.281V221H187.119V217.281L184.289 211.047H185.718ZM199.061 215.162V216.892C199.061 217.593 198.984 218.211 198.829 218.744C198.679 219.273 198.458 219.715 198.166 220.07C197.874 220.426 197.523 220.692 197.113 220.87C196.703 221.048 196.24 221.137 195.725 221.137C195.229 221.137 194.775 221.048 194.365 220.87C193.955 220.692 193.602 220.426 193.306 220.07C193.009 219.715 192.779 219.273 192.615 218.744C192.456 218.211 192.376 217.593 192.376 216.892V215.162C192.376 214.46 192.456 213.845 192.615 213.316C192.775 212.783 193.002 212.339 193.299 211.983C193.595 211.628 193.948 211.361 194.358 211.184C194.768 211.001 195.222 210.91 195.719 210.91C196.234 210.91 196.696 211.001 197.106 211.184C197.521 211.361 197.872 211.628 198.159 211.983C198.451 212.339 198.674 212.783 198.829 213.316C198.984 213.845 199.061 214.46 199.061 215.162ZM197.817 216.892V215.148C197.817 214.602 197.772 214.132 197.681 213.74C197.589 213.344 197.455 213.02 197.277 212.77C197.099 212.519 196.881 212.334 196.621 212.216C196.361 212.093 196.06 212.031 195.719 212.031C195.395 212.031 195.103 212.093 194.844 212.216C194.588 212.334 194.37 212.519 194.187 212.77C194.005 213.02 193.864 213.344 193.764 213.74C193.668 214.132 193.62 214.602 193.62 215.148V216.892C193.62 217.443 193.668 217.917 193.764 218.313C193.864 218.705 194.005 219.029 194.187 219.284C194.374 219.535 194.598 219.722 194.857 219.845C195.117 219.963 195.406 220.022 195.725 220.022C196.067 220.022 196.368 219.963 196.628 219.845C196.892 219.722 197.111 219.535 197.284 219.284C197.462 219.029 197.594 218.705 197.681 218.313C197.772 217.917 197.817 217.443 197.817 216.892ZM207.797 211.047V221H206.533L202.547 213.323V221H201.29V211.047H202.547L206.553 218.744V211.047H207.797ZM215.604 219.927V221H211.284V219.927H215.604ZM211.509 211.047V221H210.251V211.047H211.509ZM215.023 215.326V216.399H211.284V215.326H215.023ZM215.535 211.047V212.127H211.284V211.047H215.535Z" fill="white"/>
<path d="M6.348 170.432C9.43 170.432 11.914 171.72 11.914 174.802V203H7.084V190.212H5.566V203H0.782V174.802C0.782 171.72 3.22 170.432 6.348 170.432ZM5.566 185.382H7.084V175.998C7.084 175.538 6.762 175.216 6.348 175.216C5.888 175.216 5.566 175.538 5.566 175.998V185.382ZM22.834 198.17H26.468V203H18.05V170.8H22.834V198.17ZM41.0406 175.584H37.4066V184.508H41.0406V189.292H37.4066V198.17H41.0406V203H32.6226V170.8H41.0406V175.584ZM58.3273 170.8V184.324C58.3273 185.52 57.6373 186.624 57.0393 186.9C57.6373 187.176 58.3273 188.28 58.3273 189.476V203H53.4973V190.074C53.4973 189.614 53.1753 189.292 52.7613 189.292C52.3013 189.292 51.9793 189.614 51.9793 190.074V203H47.1953V189.476C47.1953 188.28 47.8393 187.176 48.4373 186.9C47.8393 186.624 47.1953 185.52 47.1953 184.324V170.8H51.9793V183.726C51.9793 184.14 52.3013 184.508 52.7613 184.508C53.1753 184.508 53.4973 184.14 53.4973 183.726V170.8H58.3273ZM82.3731 170.8H87.2031V203H82.3731V189.292H80.8551V203H76.0711V170.8H80.8551V184.508H82.3731V170.8ZM98.905 170.432C101.987 170.432 104.471 171.72 104.471 174.802V203H99.641V190.212H98.123V203H93.339V174.802C93.339 171.72 95.777 170.432 98.905 170.432ZM98.123 185.382H99.641V175.998C99.641 175.538 99.319 175.216 98.905 175.216C98.445 175.216 98.123 175.538 98.123 175.998V185.382ZM116.173 170.432C119.255 170.432 121.739 171.72 121.739 174.802V203H116.909V175.998C116.909 175.538 116.587 175.216 116.173 175.216C115.713 175.216 115.391 175.538 115.391 175.998V203H110.607V174.802C110.607 171.72 113.045 170.432 116.173 170.432ZM127.875 170.8H133.441C136.523 170.8 139.007 172.088 139.007 175.17V198.63C139.007 201.712 136.523 203 133.441 203H127.875V170.8ZM132.659 175.584V198.17H133.441C133.855 198.17 134.177 197.848 134.177 197.434V176.366C134.177 175.952 133.855 175.584 133.441 175.584H132.659ZM151.445 170.8H156.275V187.038C156.275 189.246 154.987 190.534 153.101 191.086V203H148.271V191.086C146.385 190.534 145.143 189.246 145.143 187.038V170.8H149.927V185.842C149.927 186.256 150.249 186.578 150.709 186.578C151.123 186.578 151.445 186.256 151.445 185.842V170.8ZM174.279 170.432C177.361 170.432 179.845 171.72 179.845 174.802V203H175.061V175.998C175.061 175.538 174.693 175.216 174.279 175.216C173.865 175.216 173.543 175.538 173.543 175.998V203H168.713V175.998C168.713 175.538 168.391 175.216 167.977 175.216C167.517 175.216 167.195 175.538 167.195 175.998V203H162.411V174.802C162.411 171.72 164.849 170.432 167.977 170.432C169.127 170.432 170.231 170.8 171.151 171.398C172.025 170.8 173.129 170.432 174.279 170.432ZM191.579 170.432C194.661 170.432 197.145 171.72 197.145 174.802V203H192.315V190.212H190.797V203H186.013V174.802C186.013 171.72 188.451 170.432 191.579 170.432ZM190.797 185.382H192.315V175.998C192.315 175.538 191.993 175.216 191.579 175.216C191.119 175.216 190.797 175.538 190.797 175.998V185.382ZM208.847 170.432C211.929 170.432 214.413 171.72 214.413 174.802V203H209.583V175.998C209.583 175.538 209.261 175.216 208.847 175.216C208.387 175.216 208.065 175.538 208.065 175.998V203H203.281V174.802C203.281 171.72 205.719 170.432 208.847 170.432Z" fill="white"/>
<path d="M183.5 133.5H169.5V94L168 92.5V77H167V73.5L167.5 73C169.5 68.5 175.184 64.736 175.5 63C177.1 54.2 166.232 53.0658 160.599 53.5987C166.36 59.363 171.706 65.0052 159 66.5C145.54 63.9763 151.178 60.3487 157.5 53.5C147 52 141 58.5 142.5 63C143.488 65.9638 149.167 70.5 151 73V76L150 77V92.5L148.5 94V133.5H134V35L183 51L183.5 133.5Z" fill="white"/>
<path d="M160.5 133.5H158V94L156 93V84C156 84 157 81 159 81C161 81 162.5 84 162.5 84V93L160.5 94.2999V133.5Z" fill="white"/>
<path fill-rule="evenodd" clip-rule="evenodd" d="M84.6181 35C82.1582 35.5129 81.0065 36.1441 80 39V133.5H91V132.5L92 131L91 129.5L92.5 128.5L91 127L93 126L91 124.5L93.5 123L91.5 122L94 120.5L92 119.5L94 117.5L92.5 117L95 115L93 114L94.5 113L93 111.5L95 110L93 108.5L95.5 107.5L93.5 106L95.5 104.5L94 103.5L96 102L94 101L96.5 99L95 98L97.5 96.5L95.5 95.5L98 94L95.5 92L98 91L96 90L98.5 88.5L96.5 87L99 85.5L97 84.5L99.5 83L97.5 81.5L99.5 80L97.5 79L100 77.5L97.5 76L100.5 74.5L98.5 73.5L101 72L99 70.5L101 69L99.5 68L102 66.5L100 64.5C103.166 63.9866 104.45 63.1895 106 61L111.5 41.5V40C111.534 37.2889 110.548 36.275 107.785 35H84.6181ZM84 127.5C84 126 85.5 126 85.5 126C85.5 126 87 126 87 127.5C87 129 85.5 129 85.5 129C85.5 129 84 129 84 127.5ZM102.5 58.5H84.5L84.6181 42H106.5L102.5 58.5ZM84.5 62.5C84.5 62.5 84.5 61 86 61C87.5 61 87.5 62.5 87.5 62.5C87.5 62.5 87.5 64 86 64C84.5 64 84.5 62.5 84.5 62.5ZM97 61C95.5 61 95.5 62.5 95.5 62.5C95.5 62.5 95.5 64 97 64C98.5 64 98.5 62.5 98.5 62.5C98.5 62.5 98.5 61 97 61Z" fill="white"/>
<path fill-rule="evenodd" clip-rule="evenodd" d="M183.5 136.5V156H21V136.5H183.5ZM27.5 143.5C27.5 143.5 24.5 143.5 24.5 146.5C24.5 149.5 27.5 149.5 27.5 149.5C27.5 149.5 30.5 149.5 30.5 146.5C30.5 143.5 27.5 143.5 27.5 143.5ZM35.5 139V148C35.5 148 35.5 149 36.5 149C37.5 149 37.5 148 37.5 148V139C37.5 139 37.5 138 36.5 138C35.5 138 35.5 139 35.5 139ZM40 152V139C40 139 40 138 41 138C42 138 42 139 42 139V152C42 152 42 153 41 153C40 153 40 152 40 152ZM44.5 139V148C44.5 148 44.5 149 45.5 149C46.5 149 46.5 148 46.5 148V139C46.5 139 46.5 138 45.5 138C44.5 138 44.5 139 44.5 139ZM49 152V139C49 139 49 138 50 138C51 138 51 139 51 139V152C51 152 51 153 50 153C49 153 49 152 49 152ZM53.5 139V148C53.5 148 53.5 149 54.5 149C55.5 149 55.5 148 55.5 148V139C55.5 139 55.5 138 54.5 138C53.5 138 53.5 139 53.5 139ZM57.5 152V139C57.5 139 57.5 138 58.5 138C59.5 138 59.5 139 59.5 139V152C59.5 152 59.5 153 58.5 153C57.5 153 57.5 152 57.5 152ZM61.5 139V148C61.5 148 61.5 149 62.5 149C63.5 149 63.5 148 63.5 148V139C63.5 139 63.5 138 62.5 138C61.5 138 61.5 139 61.5 139ZM66 152V139C66 139 66 138 67 138C68 138 68 139 68 139V152C68 152 68 153 67 153C66 153 66 152 66 152ZM70.5 139V148C70.5 148 70.5 149 71.5 149C72.5 149 72.5 148 72.5 148V139C72.5 139 72.5 138 71.5 138C70.5 138 70.5 139 70.5 139ZM75 152V139C75 139 75 138 76 138C77 138 77 139 77 139V152C77 152 77 153 76 153C75 153 75 152 75 152ZM79 139V148C79 148 79 149 80 149C81 149 81 148 81 148V139C81 139 81 138 80 138C79 138 79 139 79 139ZM83.5 152V139C83.5 139 83.5 138 84.5 138C85.5 138 85.5 139 85.5 139V152C85.5 152 85.5 153 84.5 153C83.5 153 83.5 152 83.5 152ZM88 139V148C88 148 88 149 89 149C90 149 90 148 90 148V139C90 139 90 138 89 138C88 138 88 139 88 139ZM92 152V139C92 139 92 138 93 138C94 138 94 139 94 139V152C94 152 94 153 93 153C92 153 92 152 92 152ZM96.5 139V148C96.5 148 96.5 149 97.5 149C98.5 149 98.5 148 98.5 148V139C98.5 139 98.5 138 97.5 138C96.5 138 96.5 139 96.5 139ZM100.5 152V139C100.5 139 100.5 138 101.5 138C102.5 138 102.5 139 102.5 139V152C102.5 152 102.5 153 101.5 153C100.5 153 100.5 152 100.5 152ZM105 139V148C105 148 105 149 106 149C107 149 107 148 107 148V139C107 139 107 138 106 138C105 138 105 139 105 139ZM109.5 152V139C109.5 139 109.5 138 110.5 138C111.5 138 111.5 139 111.5 139V152C111.5 152 111.5 153 110.5 153C109.5 153 109.5 152 109.5 152ZM113.5 139V148C113.5 148 113.5 149 114.5 149C115.5 149 115.5 148 115.5 148V139C115.5 139 115.5 138 114.5 138C113.5 138 113.5 139 113.5 139ZM118 152V139C118 139 118 138 119 138C120 138 120 139 120 139V152C120 152 120 153 119 153C118 153 118 152 118 152ZM122 139V148C122 148 122 149 123 149C124 149 124 148 124 148V139C124 139 124 138 123 138C122 138 122 139 122 139ZM126.5 152V139C126.5 139 126.5 138 127.5 138C128.5 138 128.5 139 128.5 139V152C128.5 152 128.5 153 127.5 153C126.5 153 126.5 152 126.5 152ZM131 139V148C131 148 131 149 132 149C133 149 133 148 133 148V139C133 139 133 138 132 138C131 138 131 139 131 139ZM135.5 152V139C135.5 139 135.5 138 136.5 138C137.5 138 137.5 139 137.5 139V152C137.5 152 137.5 153 136.5 153C135.5 153 135.5 152 135.5 152ZM140 139V148C140 148 140 149 141 149C142 149 142 148 142 148V139C142 139 142 138 141 138C140 138 140 139 140 139ZM144 152V139C144 139 144 138 145 138C146 138 146 139 146 139V152C146 152 146 153 145 153C144 153 144 152 144 152ZM148.5 139V148C148.5 148 148.5 149 149.5 149C150.5 149 150.5 148 150.5 148V139C150.5 139 150.5 138 149.5 138C148.5 138 148.5 139 148.5 139ZM152.5 152V139C152.5 139 152.5 138 153.5 138C154.5 138 154.5 139 154.5 139V152C154.5 152 154.5 153 153.5 153C152.5 153 152.5 152 152.5 152ZM157 139V148C157 148 157 149 158 149C159 149 159 148 159 148V139C159 139 159 138 158 138C157 138 157 139 157 139ZM161 152V139C161 139 161 138 162 138C163 138 163 139 163 139V152C163 152 163 153 162 153C161 153 161 152 161 152ZM165.5 139V148C165.5 148 165.5 149 166.5 149C167.5 149 167.5 148 167.5 148V139C167.5 139 167.5 138 166.5 138C165.5 138 165.5 139 165.5 139ZM170 152V139C170 139 170 138 171 138C172 138 172 139 172 139V152C172 152 172 153 171 153C170 153 170 152 170 152ZM174.5 139V148C174.5 148 174.5 149 175.5 149C176.5 149 176.5 148 176.5 148V139C176.5 139 176.5 138 175.5 138C174.5 138 174.5 139 174.5 139ZM179 152V139C179 139 179 138 180 138C181 138 181 139 181 139V152C181 152 181 153 180 153C179 153 179 152 179 152Z" fill="white"/>
<path d="M34.5 48C35.5 48 36 49 36 49V81.272C36 81.272 35.5 82 34.5 82C33.5 82 33 81.272 33 81.272V49C33 49 33.5 48 34.5 48Z" fill="white"/>
<path d="M34.5 48C35.5 48 36 49 36 49V81.272C36 81.272 35.5 82 34.5 82C33.5 82 33 81.272 33 81.272V49C33 49 33.5 48 34.5 48Z" fill="white"/>
<path d="M58.5 91C59.5 91 60 92 60 92V124.272C60 124.272 59.5 125 58.5 125C57.5 125 57 124.272 57 124.272V92C57 92 57.5 91 58.5 91Z" fill="white"/>
<path fill-rule="evenodd" clip-rule="evenodd" d="M21 133.5V44L71 8.5V0L195 41V50.5L71 9V133.5H21ZM32.5 126L34.5 129L36.5 126V95.5H40.5L41.5 95V93C39.9597 91.9742 39.2833 91.0592 38.5 89V84C39.1244 81.5851 39.5908 80.3436 41.5 78.5V50C41.5 50 40.5 44.5 34.5 44.5C28.5 44.5 27 50 27 50V78.5C28.8462 80.2663 29.5058 81.4537 30 84V89C29.239 91.0058 28.6458 91.9544 27 93V95L28 95.5H32.5V126ZM34.5 48C35.5 48 36 49 36 49V81.272C36 81.272 35.5 82 34.5 82C33.5 82 33 81.272 33 81.272V49C33 49 33.5 48 34.5 48ZM58.5 45L60 47V77.5H64.5L65.5 78V80C63.8542 81.0456 63.261 81.9942 62.5 84V89C62.9942 91.5463 63.6538 92.7337 65.5 94.5V123C65.5 123 64 128.5 58 128.5C52 128.5 51 123 51 123V94.5C52.9092 92.6564 53.3756 91.4149 54 89V84C53.2167 81.9408 52.5403 81.0258 51 80V78L52 77.5H56.5V47L58.5 45ZM60 92C60 92 59.5 91 58.5 91C57.5 91 57 92 57 92V124.272C57 124.272 57.5 125 58.5 125C59.5 125 60 124.272 60 124.272V92Z" fill="white"/>
<path fill-rule="evenodd" clip-rule="evenodd" d="M126 133.5H101.5C98.3066 132.367 97.4517 130.959 97 127.5L101.5 109C103.786 106.439 105.247 105.543 108 104.5L106 103L108.5 101L106.5 100L109 98.5L107 97.5L109.5 96L107.5 95L110 93.5L108 92.5L110 91L108.5 89.5L110.5 88L109 87L111.5 85.5L109.5 84.5L111.5 83L110 81.5L112 80.5L110 79L112.5 77.5L110.5 76.5L113.5 74.5L110.5 73.5L113.5 72L111.5 71L114 69.5L112 68L114 66.5L112.5 65.5L114.5 64L113 62.5L115 61.5L113 60L115.5 59L113.5 57.5L115.5 56L114 54.5L116.5 53.5L114 52L116.5 50.5L114.5 49.5L117 48L115 46.5L117.5 45L115.5 44L118 42L116 41L118 39.5L116.5 38L118.5 37L117 35H130V130C128.976 132.262 128.153 133.116 126 133.5ZM111 107C111 105.5 112.5 105.5 112.5 105.5C112.5 105.5 114 105.5 114 107C114 108.5 112.5 108.5 112.5 108.5C112.5 108.5 111 108.5 111 107ZM124.5 105.5C124.5 105.5 123 105.5 123 107C123 108.5 124.5 108.5 124.5 108.5C124.5 108.5 126 108.5 126 107C126 105.5 124.5 105.5 124.5 105.5ZM123.5 41C123.5 39.5 125 39.5 125 39.5C125 39.5 126.5 39.5 126.5 41C126.5 42.5 125 42.5 125 42.5C125 42.5 123.5 42.5 123.5 41ZM125.5 126H102L106 110.5L125.5 111V126Z" fill="white"/>
<path d="M71 8.5L21 44V133.5H71V9M71 8.5V0L195 41V50.5L71 9M71 8.5V9M160.5 53.5C160.533 53.5329 160.566 53.5658 160.599 53.5987M160.599 53.5987C166.36 59.363 171.706 65.0052 159 66.5C145.54 63.9763 151.178 60.3487 157.5 53.5C147 52 141 58.5 142.5 63C143.488 65.9638 149.167 70.5 151 73V76L150 77V92.5L148.5 94V133.5H134V35L183 51L183.5 133.5H169.5V94L168 92.5V77H167V73.5L167.5 73C169.5 68.5 175.184 64.736 175.5 63C177.1 54.2 166.232 53.0658 160.599 53.5987ZM32.5 126L34.5 129L36.5 126V95.5H40.5L41.5 95V93C39.9597 91.9742 39.2833 91.0592 38.5 89V84C39.1244 81.5851 39.5908 80.3436 41.5 78.5V50C41.5 50 40.5 44.5 34.5 44.5C28.5 44.5 27 50 27 50V78.5C28.8462 80.2663 29.5058 81.4537 30 84V89C29.239 91.0058 28.6458 91.9544 27 93V95L28 95.5H32.5M32.5 126C32.5 114.089 32.5 107.411 32.5 95.5M32.5 126V95.5M183.5 136.5V156H21V136.5H183.5ZM158 133.5H160.5V94.2999L162.5 93V84C162.5 84 161 81 159 81C157 81 156 84 156 84V93L158 94V133.5ZM101.5 133.5H126C128.153 133.116 128.976 132.262 130 130V35H117L118.5 37L116.5 38L118 39.5L116 41L118 42L115.5 44L117.5 45L115 46.5L117 48L114.5 49.5L116.5 50.5L114 52L116.5 53.5L114 54.5L115.5 56L113.5 57.5L115.5 59L113 60L115 61.5L113 62.5L114.5 64L112.5 65.5L114 66.5L112 68L114 69.5L111.5 71L113.5 72L110.5 73.5L113.5 74.5L110.5 76.5L112.5 77.5L110 79L112 80.5L110 81.5L111.5 83L109.5 84.5L111.5 85.5L109 87L110.5 88L108.5 89.5L110 91L108 92.5L110 93.5L107.5 95L109.5 96L107 97.5L109 98.5L106.5 100L108.5 101L106 103L108 104.5C105.247 105.543 103.786 106.439 101.5 109L97 127.5C97.4517 130.959 98.3066 132.367 101.5 133.5ZM102 126H125.5V111L106 110.5L102 126ZM111 107C111 105.5 112.5 105.5 112.5 105.5C112.5 105.5 114 105.5 114 107C114 108.5 112.5 108.5 112.5 108.5C112.5 108.5 111 108.5 111 107ZM123 107C123 105.5 124.5 105.5 124.5 105.5C124.5 105.5 126 105.5 126 107C126 108.5 124.5 108.5 124.5 108.5C124.5 108.5 123 108.5 123 107ZM95.5 62.5C95.5 62.5 95.5 61 97 61C98.5 61 98.5 62.5 98.5 62.5C98.5 62.5 98.5 64 97 64C95.5 64 95.5 62.5 95.5 62.5ZM84.5 62.5C84.5 62.5 84.5 61 86 61C87.5 61 87.5 62.5 87.5 62.5C87.5 62.5 87.5 64 86 64C84.5 64 84.5 62.5 84.5 62.5ZM84.5 58.5H102.5L106.5 42H84.6181L84.5 58.5ZM123.5 41C123.5 39.5 125 39.5 125 39.5C125 39.5 126.5 39.5 126.5 41C126.5 42.5 125 42.5 125 42.5C125 42.5 123.5 42.5 123.5 41ZM84 127.5C84 126 85.5 126 85.5 126C85.5 126 87 126 87 127.5C87 129 85.5 129 85.5 129C85.5 129 84 129 84 127.5ZM80 39C81.0065 36.1441 82.1582 35.5129 84.6181 35H107.785C110.548 36.275 111.534 37.2889 111.5 40V41.5L106 61C104.45 63.1895 103.166 63.9866 100 64.5L102 66.5L99.5 68L101 69L99 70.5L101 72L98.5 73.5L100.5 74.5L97.5 76L100 77.5L97.5 79L99.5 80L97.5 81.5L99.5 83L97 84.5L99 85.5L96.5 87L98.5 88.5L96 90L98 91L95.5 92L98 94L95.5 95.5L97.5 96.5L95 98L96.5 99L94 101L96 102L94 103.5L95.5 104.5L93.5 106L95.5 107.5L93 108.5L95 110L93 111.5L94.5 113L93 114L95 115L92.5 117L94 117.5L92 119.5L94 120.5L91.5 122L93.5 123L91 124.5L93 126L91 127L92.5 128.5L91 129.5L92 131L91 132.5V133.5H80V39ZM24.5 146.5C24.5 143.5 27.5 143.5 27.5 143.5C27.5 143.5 30.5 143.5 30.5 146.5C30.5 149.5 27.5 149.5 27.5 149.5C27.5 149.5 24.5 149.5 24.5 146.5ZM35.5 139V148C35.5 148 35.5 149 36.5 149C37.5 149 37.5 148 37.5 148V139C37.5 139 37.5 138 36.5 138C35.5 138 35.5 139 35.5 139ZM40 139V152C40 152 40 153 41 153C42 153 42 152 42 152V139C42 139 42 138 41 138C40 138 40 139 40 139ZM49 139V152C49 152 49 153 50 153C51 153 51 152 51 152V139C51 139 51 138 50 138C49 138 49 139 49 139ZM57.5 139V152C57.5 152 57.5 153 58.5 153C59.5 153 59.5 152 59.5 152V139C59.5 139 59.5 138 58.5 138C57.5 138 57.5 139 57.5 139ZM66 139V152C66 152 66 153 67 153C68 153 68 152 68 152V139C68 139 68 138 67 138C66 138 66 139 66 139ZM75 139V152C75 152 75 153 76 153C77 153 77 152 77 152V139C77 139 77 138 76 138C75 138 75 139 75 139ZM83.5 139V152C83.5 152 83.5 153 84.5 153C85.5 153 85.5 152 85.5 152V139C85.5 139 85.5 138 84.5 138C83.5 138 83.5 139 83.5 139ZM92 139V152C92 152 92 153 93 153C94 153 94 152 94 152V139C94 139 94 138 93 138C92 138 92 139 92 139ZM100.5 139V152C100.5 152 100.5 153 101.5 153C102.5 153 102.5 152 102.5 152V139C102.5 139 102.5 138 101.5 138C100.5 138 100.5 139 100.5 139ZM109.5 139V152C109.5 152 109.5 153 110.5 153C111.5 153 111.5 152 111.5 152V139C111.5 139 111.5 138 110.5 138C109.5 138 109.5 139 109.5 139ZM118 139V152C118 152 118 153 119 153C120 153 120 152 120 152V139C120 139 120 138 119 138C118 138 118 139 118 139ZM126.5 139V152C126.5 152 126.5 153 127.5 153C128.5 153 128.5 152 128.5 152V139C128.5 139 128.5 138 127.5 138C126.5 138 126.5 139 126.5 139ZM135.5 139V152C135.5 152 135.5 153 136.5 153C137.5 153 137.5 152 137.5 152V139C137.5 139 137.5 138 136.5 138C135.5 138 135.5 139 135.5 139ZM144 139V152C144 152 144 153 145 153C146 153 146 152 146 152V139C146 139 146 138 145 138C144 138 144 139 144 139ZM152.5 139V152C152.5 152 152.5 153 153.5 153C154.5 153 154.5 152 154.5 152V139C154.5 139 154.5 138 153.5 138C152.5 138 152.5 139 152.5 139ZM161 139V152C161 152 161 153 162 153C163 153 163 152 163 152V139C163 139 163 138 162 138C161 138 161 139 161 139ZM170 139V152C170 152 170 153 171 153C172 153 172 152 172 152V139C172 139 172 138 171 138C170 138 170 139 170 139ZM179 139V152C179 152 179 153 180 153C181 153 181 152 181 152V139C181 139 181 138 180 138C179 138 179 139 179 139ZM44.5 139V148C44.5 148 44.5 149 45.5 149C46.5 149 46.5 148 46.5 148V139C46.5 139 46.5 138 45.5 138C44.5 138 44.5 139 44.5 139ZM53.5 139V148C53.5 148 53.5 149 54.5 149C55.5 149 55.5 148 55.5 148V139C55.5 139 55.5 138 54.5 138C53.5 138 53.5 139 53.5 139ZM61.5 139V148C61.5 148 61.5 149 62.5 149C63.5 149 63.5 148 63.5 148V139C63.5 139 63.5 138 62.5 138C61.5 138 61.5 139 61.5 139ZM70.5 139V148C70.5 148 70.5 149 71.5 149C72.5 149 72.5 148 72.5 148V139C72.5 139 72.5 138 71.5 138C70.5 138 70.5 139 70.5 139ZM79 139V148C79 148 79 149 80 149C81 149 81 148 81 148V139C81 139 81 138 80 138C79 138 79 139 79 139ZM88 139V148C88 148 88 149 89 149C90 149 90 148 90 148V139C90 139 90 138 89 138C88 138 88 139 88 139ZM96.5 139V148C96.5 148 96.5 149 97.5 149C98.5 149 98.5 148 98.5 148V139C98.5 139 98.5 138 97.5 138C96.5 138 96.5 139 96.5 139ZM105 139V148C105 148 105 149 106 149C107 149 107 148 107 148V139C107 139 107 138 106 138C105 138 105 139 105 139ZM113.5 139V148C113.5 148 113.5 149 114.5 149C115.5 149 115.5 148 115.5 148V139C115.5 139 115.5 138 114.5 138C113.5 138 113.5 139 113.5 139ZM122 139V148C122 148 122 149 123 149C124 149 124 148 124 148V139C124 139 124 138 123 138C122 138 122 139 122 139ZM131 139V148C131 148 131 149 132 149C133 149 133 148 133 148V139C133 139 133 138 132 138C131 138 131 139 131 139ZM140 139V148C140 148 140 149 141 149C142 149 142 148 142 148V139C142 139 142 138 141 138C140 138 140 139 140 139ZM148.5 139V148C148.5 148 148.5 149 149.5 149C150.5 149 150.5 148 150.5 148V139C150.5 139 150.5 138 149.5 138C148.5 138 148.5 139 148.5 139ZM157 139V148C157 148 157 149 158 149C159 149 159 148 159 148V139C159 139 159 138 158 138C157 138 157 139 157 139ZM165.5 139V148C165.5 148 165.5 149 166.5 149C167.5 149 167.5 148 167.5 148V139C167.5 139 167.5 138 166.5 138C165.5 138 165.5 139 165.5 139ZM174.5 139V148C174.5 148 174.5 149 175.5 149C176.5 149 176.5 148 176.5 148V139C176.5 139 176.5 138 175.5 138C174.5 138 174.5 139 174.5 139ZM36 49C36 49 35.5 48 34.5 48C33.5 48 33 49 33 49V81.272C33 81.272 33.5 82 34.5 82C35.5 82 36 81.272 36 81.272V49ZM60 47L58.5 45L56.5 47V77.5H52L51 78V80C52.5403 81.0258 53.2167 81.9408 54 84V89C53.3756 91.4149 52.9092 92.6564 51 94.5V123C51 123 52 128.5 58 128.5C64 128.5 65.5 123 65.5 123V94.5C63.6538 92.7337 62.9942 91.5463 62.5 89V84C63.261 81.9942 63.8542 81.0456 65.5 80V78L64.5 77.5H60V47ZM60 92C60 92 59.5 91 58.5 91C57.5 91 57 92 57 92V124.272C57 124.272 57.5 125 58.5 125C59.5 125 60 124.272 60 124.272V92Z" stroke="#3B1D1E" stroke-width="0.5"/>
</g>
</g>
<defs>
<clipPath id="clip0_54_470">
<rect width="216" height="224" fill="white"/>
</clipPath>
<clipPath id="clip1_54_470">
<rect width="216" height="222" fill="white" transform="translate(0 -1)"/>
</clipPath>
</defs>
</svg>
