<svg width="25" height="25" viewBox="0 0 25 25" fill="none" xmlns="http://www.w3.org/2000/svg">
<g clip-path="url(#clip0_39_607)">
<g clip-path="url(#clip1_39_607)">
<path d="M11.4586 11.4584L6.25023 6.25005M5.20856 7.81255L7.81273 5.20839L4.68773 3.64589L3.64606 4.68755L5.20856 7.81255ZM20.8075 9.34901C21.3076 8.84934 21.6517 8.21505 21.7978 7.52336C21.9439 6.83167 21.8858 6.11242 21.6304 5.45318L20.1492 6.93443H18.0659V4.85109L19.5471 3.36984C18.8878 3.11395 18.1683 3.05532 17.4763 3.20111C16.7843 3.3469 16.1496 3.6908 15.6496 4.19093C15.1496 4.69105 14.8058 5.32581 14.6602 6.01785C14.5146 6.7099 14.5734 7.42937 14.8294 8.08859L8.08981 14.8292C7.43059 14.5732 6.71112 14.5144 6.01907 14.66C5.32703 14.8057 4.69227 15.1494 4.19215 15.6494C3.69202 16.1495 3.34812 16.7841 3.20233 17.4761C3.05654 18.1682 3.11517 18.8876 3.37106 19.5469L4.85127 18.0657H6.93461V20.149L5.45336 21.6303C6.11248 21.8862 6.83178 21.9449 7.52367 21.7993C8.21557 21.6536 8.85019 21.31 9.35026 20.8101C9.85033 20.3103 10.1943 19.6758 10.3402 18.984C10.4861 18.2922 10.4277 17.5728 10.1721 16.9136L16.9138 10.1719C17.5727 10.4268 18.2916 10.4847 18.9828 10.3386C19.6741 10.1925 20.308 9.84872 20.8075 9.34901Z" stroke="#3B1D1E" stroke-width="1.5625" stroke-linecap="round" stroke-linejoin="round"/>
<path d="M12.2891 15.1042L18.1266 20.9417C18.2572 21.0726 18.4123 21.1764 18.5831 21.2472C18.7539 21.3181 18.937 21.3545 19.1219 21.3545C19.3068 21.3545 19.4899 21.3181 19.6606 21.2472C19.8314 21.1764 19.9866 21.0726 20.1172 20.9417L20.9422 20.1167C21.0731 19.9861 21.1769 19.8309 21.2477 19.6602C21.3186 19.4894 21.355 19.3063 21.355 19.1214C21.355 18.9365 21.3186 18.7534 21.2477 18.5826C21.1769 18.4118 21.0731 18.2567 20.9422 18.1261L15.1047 12.2886" stroke="#3B1D1E" stroke-width="1.5625" stroke-linecap="round" stroke-linejoin="round"/>
</g>
</g>
<defs>
<clipPath id="clip0_39_607">
<rect width="25" height="25" fill="white"/>
</clipPath>
<clipPath id="clip1_39_607">
<rect width="25" height="25" fill="white"/>
</clipPath>
</defs>
</svg>
